<?xml version="1.0" encoding="utf-8"?>
<!-- Generator: Adobe Illustrator 19.0.1, SVG Export Plug-In . SVG Version: 6.00 Build 0)  -->
<svg version="1.1" id="Layer_1" xmlns="http://www.w3.org/2000/svg" xmlns:xlink="http://www.w3.org/1999/xlink" x="0px" y="0px"
	 viewBox="0 0 2560 1440" style="enable-background:new 0 0 2560 1440;" xml:space="preserve">
<style type="text/css">
	.st0{fill:#FFFFFF;}
</style>
<polygon class="st0" points="1352.7,845.9 1207.3,845.9 1280,720 "/>
<polygon class="st0" points="1352.7,845.9 1280,720 1425.3,720 "/>
<polygon class="st0" points="1207.3,845.9 1134.7,720 1280,720 "/>
<polygon class="st0" points="1280,720 1134.7,720 1207.3,594.1 "/>
<polygon class="st0" points="1425.3,720 1280,720 1352.7,594.1 "/>
<polygon class="st0" points="1280,720 1207.3,594.1 1352.7,594.1 "/>
<polygon class="st0" points="1498,720 1425.3,720 1498,594.1 "/>
<polygon class="st0" points="1570.7,720 1498,720 1498,594.1 "/>
<polygon class="st0" points="1570.7,720 1498,594.1 1607.1,657.1 "/>
<polygon class="st0" points="1425.3,720 1389,657.1 1498,594.1 "/>
<polygon class="st0" points="1607.1,657.1 1498,594.1 1643.4,594.1 "/>
<polygon class="st0" points="1389,657.1 1352.7,594.1 1498,594.1 "/>
<polygon class="st0" points="1498,594.1 1352.7,594.1 1389,531.1 "/>
<polygon class="st0" points="1643.4,594.1 1498,594.1 1607.1,531.1 "/>
<polygon class="st0" points="1498,594.1 1570.7,468.2 1607.1,531.1 "/>
<polygon class="st0" points="1498,594.1 1389,531.1 1425.3,468.2 "/>
<polygon class="st0" points="1498,594.1 1425.3,468.2 1498,468.2 "/>
<polygon class="st0" points="1498,594.1 1498,468.2 1570.7,468.2 "/>
<polygon class="st0" points="1570.7,971.8 1425.3,971.8 1498,845.9 "/>
<polygon class="st0" points="1570.7,971.8 1498,845.9 1643.4,845.9 "/>
<polygon class="st0" points="1425.3,971.8 1352.7,845.9 1498,845.9 "/>
<polygon class="st0" points="1498,845.9 1352.7,845.9 1425.3,720 "/>
<polygon class="st0" points="1643.4,845.9 1498,845.9 1570.7,720 "/>
<polygon class="st0" points="1498,845.9 1425.3,720 1570.7,720 "/>
<polygon class="st0" points="1280,1097.6 1207.3,1097.6 1280,971.8 "/>
<polygon class="st0" points="1352.7,1097.6 1280,1097.6 1280,971.8 "/>
<polygon class="st0" points="1352.7,1097.6 1280,971.8 1389.1,1034.7 "/>
<polygon class="st0" points="1207.3,1097.6 1170.9,1034.7 1280,971.8 "/>
<polygon class="st0" points="1389.1,1034.7 1280,971.8 1425.3,971.8 "/>
<polygon class="st0" points="1170.9,1034.7 1134.7,971.8 1280,971.8 "/>
<polygon class="st0" points="1280,971.8 1134.7,971.8 1170.9,908.8 "/>
<polygon class="st0" points="1425.3,971.8 1280,971.8 1389.1,908.8 "/>
<polygon class="st0" points="1280,971.8 1352.7,845.9 1389.1,908.8 "/>
<polygon class="st0" points="1280,971.8 1170.9,908.8 1207.3,845.9 "/>
<polygon class="st0" points="1280,971.8 1207.3,845.9 1280,845.9 "/>
<polygon class="st0" points="1280,971.8 1280,845.9 1352.7,845.9 "/>
<polygon class="st0" points="1134.7,971.8 989.3,971.8 1062,845.9 "/>
<polygon class="st0" points="1134.7,971.8 1062,845.9 1207.3,845.9 "/>
<polygon class="st0" points="989.3,971.8 916.6,845.9 1062,845.9 "/>
<polygon class="st0" points="1062,845.9 916.6,845.9 989.3,720 "/>
<polygon class="st0" points="1207.3,845.9 1062,845.9 1134.7,720 "/>
<polygon class="st0" points="1062,845.9 989.3,720 1134.7,720 "/>
<polygon class="st0" points="1062,720 989.3,720 1062,594.1 "/>
<polygon class="st0" points="1134.7,720 1062,720 1062,594.1 "/>
<polygon class="st0" points="1134.7,720 1062,594.1 1171,657.1 "/>
<polygon class="st0" points="989.3,720 952.9,657.1 1062,594.1 "/>
<polygon class="st0" points="1171,657.1 1062,594.1 1207.3,594.1 "/>
<polygon class="st0" points="952.9,657.1 916.6,594.1 1062,594.1 "/>
<polygon class="st0" points="1062,594.1 916.6,594.1 952.9,531.1 "/>
<polygon class="st0" points="1207.3,594.1 1062,594.1 1171,531.1 "/>
<polygon class="st0" points="1062,594.1 1134.7,468.2 1171,531.1 "/>
<polygon class="st0" points="1062,594.1 952.9,531.1 989.3,468.2 "/>
<polygon class="st0" points="1062,594.1 989.3,468.2 1062,468.2 "/>
<polygon class="st0" points="1062,594.1 1062,468.2 1134.7,468.2 "/>
<polygon class="st0" points="1352.7,594.1 1207.3,594.1 1280,468.2 "/>
<polygon class="st0" points="1352.7,594.1 1280,468.2 1425.3,468.2 "/>
<polygon class="st0" points="1207.3,594.1 1134.7,468.2 1280,468.2 "/>
<polygon class="st0" points="1280,468.2 1134.7,468.2 1207.3,342.4 "/>
<polygon class="st0" points="1425.3,468.2 1280,468.2 1352.7,342.4 "/>
<polygon class="st0" points="1280,468.2 1207.3,342.4 1352.7,342.4 "/>
<polygon class="st0" points="1498,468.2 1425.3,468.2 1498,342.4 "/>
<polygon class="st0" points="1570.7,468.2 1498,468.2 1498,342.4 "/>
<polygon class="st0" points="1570.7,468.2 1498,342.4 1607.1,405.3 "/>
<polygon class="st0" points="1425.3,468.2 1389,405.3 1498,342.4 "/>
<polygon class="st0" points="1607.1,405.3 1498,342.4 1643.4,342.4 "/>
<polygon class="st0" points="1389,405.3 1352.7,342.4 1498,342.4 "/>
<polygon class="st0" points="1498,342.4 1352.7,342.4 1389,279.4 "/>
<polygon class="st0" points="1643.4,342.4 1498,342.4 1607.1,279.4 "/>
<polygon class="st0" points="1498,342.4 1570.7,216.5 1607.1,279.4 "/>
<polygon class="st0" points="1498,342.4 1389,279.4 1425.3,216.5 "/>
<polygon class="st0" points="1498,342.4 1425.3,216.5 1498,216.5 "/>
<polygon class="st0" points="1498,342.4 1498,216.5 1570.7,216.5 "/>
<polygon class="st0" points="1716.1,594.1 1643.4,594.1 1716.1,468.2 "/>
<polygon class="st0" points="1788.7,594.1 1716.1,594.1 1716.1,468.2 "/>
<polygon class="st0" points="1788.7,594.1 1716.1,468.2 1825.1,531.2 "/>
<polygon class="st0" points="1643.4,594.1 1607,531.2 1716.1,468.2 "/>
<polygon class="st0" points="1825.1,531.2 1716.1,468.2 1861.4,468.2 "/>
<polygon class="st0" points="1607,531.2 1570.7,468.2 1716.1,468.2 "/>
<polygon class="st0" points="1716.1,468.2 1570.7,468.2 1607,405.3 "/>
<polygon class="st0" points="1861.4,468.2 1716.1,468.2 1825.1,405.3 "/>
<polygon class="st0" points="1716.1,468.2 1788.7,342.4 1825.1,405.3 "/>
<polygon class="st0" points="1716.1,468.2 1607,405.3 1643.4,342.4 "/>
<polygon class="st0" points="1716.1,468.2 1643.4,342.4 1716.1,342.4 "/>
<polygon class="st0" points="1716.1,468.2 1716.1,342.4 1788.7,342.4 "/>
<polygon class="st0" points="1788.7,845.9 1643.4,845.9 1716.1,720 "/>
<polygon class="st0" points="1788.7,845.9 1716.1,720 1861.4,720 "/>
<polygon class="st0" points="1643.4,845.9 1570.7,720 1716.1,720 "/>
<polygon class="st0" points="1716.1,720 1570.7,720 1643.4,594.1 "/>
<polygon class="st0" points="1861.4,720 1716.1,720 1788.7,594.1 "/>
<polygon class="st0" points="1716.1,720 1643.4,594.1 1788.7,594.1 "/>
<polygon class="st0" points="1788.7,1097.6 1643.4,1097.6 1716.1,971.8 "/>
<polygon class="st0" points="1788.7,1097.6 1716.1,971.8 1861.4,971.8 "/>
<polygon class="st0" points="1643.4,1097.6 1570.7,971.8 1716.1,971.8 "/>
<polygon class="st0" points="1716.1,971.8 1570.7,971.8 1643.4,845.9 "/>
<polygon class="st0" points="1861.4,971.8 1716.1,971.8 1788.7,845.9 "/>
<polygon class="st0" points="1716.1,971.8 1643.4,845.9 1788.7,845.9 "/>
<polygon class="st0" points="1498,1223.5 1425.3,1223.5 1498,1097.6 "/>
<polygon class="st0" points="1570.7,1223.5 1498,1223.5 1498,1097.6 "/>
<polygon class="st0" points="1570.7,1223.5 1498,1097.6 1607.1,1160.6 "/>
<polygon class="st0" points="1425.3,1223.5 1389,1160.6 1498,1097.6 "/>
<polygon class="st0" points="1607.1,1160.6 1498,1097.6 1643.4,1097.6 "/>
<polygon class="st0" points="1389,1160.6 1352.7,1097.6 1498,1097.6 "/>
<polygon class="st0" points="1498,1097.6 1352.7,1097.6 1389,1034.7 "/>
<polygon class="st0" points="1643.4,1097.6 1498,1097.6 1607.1,1034.7 "/>
<polygon class="st0" points="1498,1097.6 1570.7,971.8 1607.1,1034.7 "/>
<polygon class="st0" points="1498,1097.6 1389,1034.7 1425.3,971.8 "/>
<polygon class="st0" points="1498,1097.6 1425.3,971.8 1498,971.8 "/>
<polygon class="st0" points="1498,1097.6 1498,971.8 1570.7,971.8 "/>
<polygon class="st0" points="1280,1349.4 1207.3,1349.4 1280,1223.5 "/>
<polygon class="st0" points="1352.7,1349.4 1280,1349.4 1280,1223.5 "/>
<polygon class="st0" points="1352.7,1349.4 1280,1223.5 1389.1,1286.5 "/>
<polygon class="st0" points="1207.3,1349.4 1170.9,1286.5 1280,1223.5 "/>
<polygon class="st0" points="1389.1,1286.5 1280,1223.5 1425.3,1223.5 "/>
<polygon class="st0" points="1170.9,1286.5 1134.7,1223.5 1280,1223.5 "/>
<polygon class="st0" points="1280,1223.5 1134.7,1223.5 1170.9,1160.5 "/>
<polygon class="st0" points="1425.3,1223.5 1280,1223.5 1389.1,1160.5 "/>
<polygon class="st0" points="1280,1223.5 1352.7,1097.6 1389.1,1160.5 "/>
<polygon class="st0" points="1280,1223.5 1170.9,1160.5 1207.3,1097.6 "/>
<polygon class="st0" points="1280,1223.5 1207.3,1097.6 1280,1097.6 "/>
<polygon class="st0" points="1280,1223.5 1280,1097.6 1352.7,1097.6 "/>
<polygon class="st0" points="1134.7,1223.5 989.3,1223.5 1062,1097.6 "/>
<polygon class="st0" points="1134.7,1223.5 1062,1097.6 1207.3,1097.6 "/>
<polygon class="st0" points="989.3,1223.5 916.6,1097.6 1062,1097.6 "/>
<polygon class="st0" points="1062,1097.6 916.6,1097.6 989.3,971.8 "/>
<polygon class="st0" points="1207.3,1097.6 1062,1097.6 1134.7,971.8 "/>
<polygon class="st0" points="1062,1097.6 989.3,971.8 1134.7,971.8 "/>
<polygon class="st0" points="844,1097.6 771.3,1097.6 844,971.8 "/>
<polygon class="st0" points="916.6,1097.6 844,1097.6 844,971.8 "/>
<polygon class="st0" points="916.6,1097.6 844,971.8 953,1034.7 "/>
<polygon class="st0" points="771.3,1097.6 734.9,1034.7 844,971.8 "/>
<polygon class="st0" points="953,1034.7 844,971.8 989.3,971.8 "/>
<polygon class="st0" points="734.9,1034.7 698.6,971.8 844,971.8 "/>
<polygon class="st0" points="844,971.8 698.6,971.8 734.9,908.8 "/>
<polygon class="st0" points="989.3,971.8 844,971.8 953,908.8 "/>
<polygon class="st0" points="844,971.8 916.6,845.9 953,908.8 "/>
<polygon class="st0" points="844,971.8 734.9,908.8 771.3,845.9 "/>
<polygon class="st0" points="844,971.8 771.3,845.9 844,845.9 "/>
<polygon class="st0" points="844,971.8 844,845.9 916.6,845.9 "/>
<polygon class="st0" points="844,845.9 771.3,845.9 844,720 "/>
<polygon class="st0" points="916.6,845.9 844,845.9 844,720 "/>
<polygon class="st0" points="916.6,845.9 844,720 953,783 "/>
<polygon class="st0" points="771.3,845.9 734.9,783 844,720 "/>
<polygon class="st0" points="953,783 844,720 989.3,720 "/>
<polygon class="st0" points="734.9,783 698.6,720 844,720 "/>
<polygon class="st0" points="844,720 698.6,720 734.9,657 "/>
<polygon class="st0" points="989.3,720 844,720 953,657 "/>
<polygon class="st0" points="844,720 916.6,594.1 953,657 "/>
<polygon class="st0" points="844,720 734.9,657 771.3,594.1 "/>
<polygon class="st0" points="844,720 771.3,594.1 844,594.1 "/>
<polygon class="st0" points="844,720 844,594.1 916.6,594.1 "/>
<polygon class="st0" points="844,594.1 771.3,594.1 844,468.2 "/>
<polygon class="st0" points="916.6,594.1 844,594.1 844,468.2 "/>
<polygon class="st0" points="916.6,594.1 844,468.2 953,531.2 "/>
<polygon class="st0" points="771.3,594.1 734.9,531.2 844,468.2 "/>
<polygon class="st0" points="953,531.2 844,468.2 989.3,468.2 "/>
<polygon class="st0" points="734.9,531.2 698.6,468.2 844,468.2 "/>
<polygon class="st0" points="844,468.2 698.6,468.2 734.9,405.3 "/>
<polygon class="st0" points="989.3,468.2 844,468.2 953,405.3 "/>
<polygon class="st0" points="844,468.2 916.6,342.4 953,405.3 "/>
<polygon class="st0" points="844,468.2 734.9,405.3 771.3,342.4 "/>
<polygon class="st0" points="844,468.2 771.3,342.4 844,342.4 "/>
<polygon class="st0" points="844,468.2 844,342.4 916.6,342.4 "/>
<polygon class="st0" points="1062,468.2 989.3,468.2 1062,342.4 "/>
<polygon class="st0" points="1134.7,468.2 1062,468.2 1062,342.4 "/>
<polygon class="st0" points="1134.7,468.2 1062,342.4 1171,405.3 "/>
<polygon class="st0" points="989.3,468.2 952.9,405.3 1062,342.4 "/>
<polygon class="st0" points="1171,405.3 1062,342.4 1207.3,342.4 "/>
<polygon class="st0" points="952.9,405.3 916.6,342.4 1062,342.4 "/>
<polygon class="st0" points="1062,342.4 916.6,342.4 952.9,279.4 "/>
<polygon class="st0" points="1207.3,342.4 1062,342.4 1171,279.4 "/>
<polygon class="st0" points="1062,342.4 1134.7,216.5 1171,279.4 "/>
<polygon class="st0" points="1062,342.4 952.9,279.4 989.3,216.5 "/>
<polygon class="st0" points="1062,342.4 989.3,216.5 1062,216.5 "/>
<polygon class="st0" points="1062,342.4 1062,216.5 1134.7,216.5 "/>
<polygon class="st0" points="1352.7,342.4 1207.3,342.4 1280,216.5 "/>
<polygon class="st0" points="1352.7,342.4 1280,216.5 1425.3,216.5 "/>
<polygon class="st0" points="1207.3,342.4 1134.7,216.5 1280,216.5 "/>
<polygon class="st0" points="1280,216.5 1134.7,216.5 1207.3,90.6 "/>
<polygon class="st0" points="1425.3,216.5 1280,216.5 1352.7,90.6 "/>
<polygon class="st0" points="1280,216.5 1207.3,90.6 1352.7,90.6 "/>
<polygon class="st0" points="1498,216.5 1425.3,216.5 1498,90.6 "/>
<polygon class="st0" points="1570.7,216.5 1498,216.5 1498,90.6 "/>
<polygon class="st0" points="1570.7,216.5 1498,90.6 1607.1,153.6 "/>
<polygon class="st0" points="1425.3,216.5 1389,153.6 1498,90.6 "/>
<polygon class="st0" points="1607.1,153.6 1498,90.6 1643.4,90.6 "/>
<polygon class="st0" points="1389,153.6 1352.7,90.6 1498,90.6 "/>
<polygon class="st0" points="1498,90.6 1352.7,90.6 1389,27.6 "/>
<polygon class="st0" points="1643.4,90.6 1498,90.6 1607.1,27.6 "/>
<polygon class="st0" points="1498,90.6 1570.7,-35.3 1607.1,27.6 "/>
<polygon class="st0" points="1498,90.6 1389,27.6 1425.3,-35.3 "/>
<polygon class="st0" points="1498,90.6 1425.3,-35.3 1498,-35.3 "/>
<polygon class="st0" points="1498,90.6 1498,-35.3 1570.7,-35.3 "/>
<polygon class="st0" points="1716.1,342.4 1643.4,342.4 1716.1,216.5 "/>
<polygon class="st0" points="1788.7,342.4 1716.1,342.4 1716.1,216.5 "/>
<polygon class="st0" points="1788.7,342.4 1716.1,216.5 1825.1,279.5 "/>
<polygon class="st0" points="1643.4,342.4 1607,279.5 1716.1,216.5 "/>
<polygon class="st0" points="1825.1,279.5 1716.1,216.5 1861.4,216.5 "/>
<polygon class="st0" points="1607,279.5 1570.7,216.5 1716.1,216.5 "/>
<polygon class="st0" points="1716.1,216.5 1570.7,216.5 1607,153.5 "/>
<polygon class="st0" points="1861.4,216.5 1716.1,216.5 1825.1,153.5 "/>
<polygon class="st0" points="1716.1,216.5 1788.7,90.6 1825.1,153.5 "/>
<polygon class="st0" points="1716.1,216.5 1607,153.5 1643.4,90.6 "/>
<polygon class="st0" points="1716.1,216.5 1643.4,90.6 1716.1,90.6 "/>
<polygon class="st0" points="1716.1,216.5 1716.1,90.6 1788.7,90.6 "/>
<polygon class="st0" points="2006.8,468.2 1861.4,468.2 1934.1,342.4 "/>
<polygon class="st0" points="2006.8,468.2 1934.1,342.4 2079.4,342.4 "/>
<polygon class="st0" points="1861.4,468.2 1788.7,342.4 1934.1,342.4 "/>
<polygon class="st0" points="1934.1,342.4 1788.7,342.4 1861.4,216.5 "/>
<polygon class="st0" points="2079.4,342.4 1934.1,342.4 2006.8,216.5 "/>
<polygon class="st0" points="1934.1,342.4 1861.4,216.5 2006.8,216.5 "/>
<polygon class="st0" points="1934.1,720 1861.4,720 1934.1,594.1 "/>
<polygon class="st0" points="2006.8,720 1934.1,720 1934.1,594.1 "/>
<polygon class="st0" points="2006.8,720 1934.1,594.1 2043.1,657.1 "/>
<polygon class="st0" points="1861.4,720 1825,657.1 1934.1,594.1 "/>
<polygon class="st0" points="2043.1,657.1 1934.1,594.1 2079.4,594.1 "/>
<polygon class="st0" points="1825,657.1 1788.7,594.1 1934.1,594.1 "/>
<polygon class="st0" points="1934.1,594.1 1788.7,594.1 1825,531.1 "/>
<polygon class="st0" points="2079.4,594.1 1934.1,594.1 2043.1,531.1 "/>
<polygon class="st0" points="1934.1,594.1 2006.8,468.2 2043.1,531.1 "/>
<polygon class="st0" points="1934.1,594.1 1825,531.1 1861.4,468.2 "/>
<polygon class="st0" points="1934.1,594.1 1861.4,468.2 1934.1,468.2 "/>
<polygon class="st0" points="1934.1,594.1 1934.1,468.2 2006.8,468.2 "/>
<polygon class="st0" points="1934.1,971.8 1861.4,971.8 1934.1,845.9 "/>
<polygon class="st0" points="2006.8,971.8 1934.1,971.8 1934.1,845.9 "/>
<polygon class="st0" points="2006.8,971.8 1934.1,845.9 2043.1,908.9 "/>
<polygon class="st0" points="1861.4,971.8 1825,908.9 1934.1,845.9 "/>
<polygon class="st0" points="2043.1,908.9 1934.1,845.9 2079.4,845.9 "/>
<polygon class="st0" points="1825,908.9 1788.7,845.9 1934.1,845.9 "/>
<polygon class="st0" points="1934.1,845.9 1788.7,845.9 1825,782.9 "/>
<polygon class="st0" points="2079.4,845.9 1934.1,845.9 2043.1,782.9 "/>
<polygon class="st0" points="1934.1,845.9 2006.8,720 2043.1,782.9 "/>
<polygon class="st0" points="1934.1,845.9 1825,782.9 1861.4,720 "/>
<polygon class="st0" points="1934.1,845.9 1861.4,720 1934.1,720 "/>
<polygon class="st0" points="1934.1,845.9 1934.1,720 2006.8,720 "/>
<polygon class="st0" points="1934.1,1223.5 1861.4,1223.5 1934.1,1097.6 "/>
<polygon class="st0" points="2006.8,1223.5 1934.1,1223.5 1934.1,1097.6 "/>
<polygon class="st0" points="2006.8,1223.5 1934.1,1097.6 2043.1,1160.6 "/>
<polygon class="st0" points="1861.4,1223.5 1825,1160.6 1934.1,1097.6 "/>
<polygon class="st0" points="2043.1,1160.6 1934.1,1097.6 2079.4,1097.6 "/>
<polygon class="st0" points="1825,1160.6 1788.7,1097.6 1934.1,1097.6 "/>
<polygon class="st0" points="1934.1,1097.6 1788.7,1097.6 1825,1034.7 "/>
<polygon class="st0" points="2079.4,1097.6 1934.1,1097.6 2043.1,1034.7 "/>
<polygon class="st0" points="1934.1,1097.6 2006.8,971.8 2043.1,1034.7 "/>
<polygon class="st0" points="1934.1,1097.6 1825,1034.7 1861.4,971.8 "/>
<polygon class="st0" points="1934.1,1097.6 1861.4,971.8 1934.1,971.8 "/>
<polygon class="st0" points="1934.1,1097.6 1934.1,971.8 2006.8,971.8 "/>
<polygon class="st0" points="1934.1,1601.1 1498,1601.1 1716.1,1223.5 "/>
<polygon class="st0" points="1934.1,1601.1 1716.1,1223.5 2152.1,1223.5 "/>
<polygon class="st0" points="1498,1601.1 1280,1223.5 1716.1,1223.5 "/>
<polygon class="st0" points="1716.1,1223.5 1280,1223.5 1498,845.9 "/>
<polygon class="st0" points="2152.1,1223.5 1716.1,1223.5 1934.1,845.9 "/>
<polygon class="st0" points="1716.1,1223.5 1498,845.9 1934.1,845.9 "/>
<polygon class="st0" points="1570.7,1475.3 1425.3,1475.3 1498,1349.4 "/>
<polygon class="st0" points="1570.7,1475.3 1498,1349.4 1643.4,1349.4 "/>
<polygon class="st0" points="1425.3,1475.3 1352.7,1349.4 1498,1349.4 "/>
<polygon class="st0" points="1498,1349.4 1352.7,1349.4 1425.3,1223.5 "/>
<polygon class="st0" points="1643.4,1349.4 1498,1349.4 1570.7,1223.5 "/>
<polygon class="st0" points="1498,1349.4 1425.3,1223.5 1570.7,1223.5 "/>
<polygon class="st0" points="1280,1601.1 1207.3,1601.1 1280,1475.3 "/>
<polygon class="st0" points="1352.7,1601.1 1280,1601.1 1280,1475.3 "/>
<polygon class="st0" points="1352.7,1601.1 1280,1475.3 1389.1,1538.2 "/>
<polygon class="st0" points="1207.3,1601.1 1170.9,1538.2 1280,1475.3 "/>
<polygon class="st0" points="1389.1,1538.2 1280,1475.3 1425.3,1475.3 "/>
<polygon class="st0" points="1170.9,1538.2 1134.7,1475.3 1280,1475.3 "/>
<polygon class="st0" points="1280,1475.3 1134.7,1475.3 1170.9,1412.3 "/>
<polygon class="st0" points="1425.3,1475.3 1280,1475.3 1389.1,1412.3 "/>
<polygon class="st0" points="1280,1475.3 1352.7,1349.4 1389.1,1412.3 "/>
<polygon class="st0" points="1280,1475.3 1170.9,1412.3 1207.3,1349.4 "/>
<polygon class="st0" points="1280,1475.3 1207.3,1349.4 1280,1349.4 "/>
<polygon class="st0" points="1280,1475.3 1280,1349.4 1352.7,1349.4 "/>
<polygon class="st0" points="1062,1475.3 989.3,1475.3 1062,1349.4 "/>
<polygon class="st0" points="1134.7,1475.3 1062,1475.3 1062,1349.4 "/>
<polygon class="st0" points="1134.7,1475.3 1062,1349.4 1171,1412.4 "/>
<polygon class="st0" points="989.3,1475.3 952.9,1412.4 1062,1349.4 "/>
<polygon class="st0" points="1171,1412.4 1062,1349.4 1207.3,1349.4 "/>
<polygon class="st0" points="952.9,1412.4 916.6,1349.4 1062,1349.4 "/>
<polygon class="st0" points="1062,1349.4 916.6,1349.4 952.9,1286.4 "/>
<polygon class="st0" points="1207.3,1349.4 1062,1349.4 1171,1286.4 "/>
<polygon class="st0" points="1062,1349.4 1134.7,1223.5 1171,1286.4 "/>
<polygon class="st0" points="1062,1349.4 952.9,1286.4 989.3,1223.5 "/>
<polygon class="st0" points="1062,1349.4 989.3,1223.5 1062,1223.5 "/>
<polygon class="st0" points="1062,1349.4 1062,1223.5 1134.7,1223.5 "/>
<polygon class="st0" points="916.6,1349.4 771.3,1349.4 844,1223.5 "/>
<polygon class="st0" points="916.6,1349.4 844,1223.5 989.3,1223.5 "/>
<polygon class="st0" points="771.3,1349.4 698.6,1223.5 844,1223.5 "/>
<polygon class="st0" points="844,1223.5 698.6,1223.5 771.3,1097.6 "/>
<polygon class="st0" points="989.3,1223.5 844,1223.5 916.6,1097.6 "/>
<polygon class="st0" points="844,1223.5 771.3,1097.6 916.6,1097.6 "/>
<polygon class="st0" points="698.6,1223.5 553.2,1223.5 625.9,1097.6 "/>
<polygon class="st0" points="698.6,1223.5 625.9,1097.6 771.3,1097.6 "/>
<polygon class="st0" points="553.2,1223.5 480.6,1097.6 625.9,1097.6 "/>
<polygon class="st0" points="625.9,1097.6 480.6,1097.6 553.2,971.8 "/>
<polygon class="st0" points="771.3,1097.6 625.9,1097.6 698.6,971.8 "/>
<polygon class="st0" points="625.9,1097.6 553.2,971.8 698.6,971.8 "/>
<polygon class="st0" points="771.3,1097.6 480.6,1097.6 625.9,845.9 "/>
<polygon class="st0" points="771.3,1097.6 625.9,845.9 916.6,845.9 "/>
<polygon class="st0" points="480.6,1097.6 335.2,845.9 625.9,845.9 "/>
<polygon class="st0" points="625.9,845.9 335.2,845.9 480.6,594.1 "/>
<polygon class="st0" points="916.6,845.9 625.9,845.9 771.3,594.1 "/>
<polygon class="st0" points="625.9,845.9 480.6,594.1 771.3,594.1 "/>
<polygon class="st0" points="625.9,720 553.2,720 625.9,594.1 "/>
<polygon class="st0" points="698.6,720 625.9,720 625.9,594.1 "/>
<polygon class="st0" points="698.6,720 625.9,594.1 735,657.1 "/>
<polygon class="st0" points="553.2,720 516.9,657.1 625.9,594.1 "/>
<polygon class="st0" points="735,657.1 625.9,594.1 771.3,594.1 "/>
<polygon class="st0" points="516.9,657.1 480.6,594.1 625.9,594.1 "/>
<polygon class="st0" points="625.9,594.1 480.6,594.1 516.9,531.1 "/>
<polygon class="st0" points="771.3,594.1 625.9,594.1 735,531.1 "/>
<polygon class="st0" points="625.9,594.1 698.6,468.2 735,531.1 "/>
<polygon class="st0" points="625.9,594.1 516.9,531.1 553.2,468.2 "/>
<polygon class="st0" points="625.9,594.1 553.2,468.2 625.9,468.2 "/>
<polygon class="st0" points="625.9,594.1 625.9,468.2 698.6,468.2 "/>
<polygon class="st0" points="698.6,468.2 553.2,468.2 625.9,342.4 "/>
<polygon class="st0" points="698.6,468.2 625.9,342.4 771.3,342.4 "/>
<polygon class="st0" points="553.2,468.2 480.6,342.4 625.9,342.4 "/>
<polygon class="st0" points="625.9,342.4 480.6,342.4 553.2,216.5 "/>
<polygon class="st0" points="771.3,342.4 625.9,342.4 698.6,216.5 "/>
<polygon class="st0" points="625.9,342.4 553.2,216.5 698.6,216.5 "/>
<polygon class="st0" points="844,594.1 625.9,594.1 844,216.5 "/>
<polygon class="st0" points="1062,594.1 844,594.1 844,216.5 "/>
<polygon class="st0" points="1062,594.1 844,216.5 1171.1,405.4 "/>
<polygon class="st0" points="625.9,594.1 516.8,405.4 844,216.5 "/>
<polygon class="st0" points="1171.1,405.4 844,216.5 1280,216.5 "/>
<polygon class="st0" points="516.8,405.4 407.9,216.5 844,216.5 "/>
<polygon class="st0" points="844,216.5 407.9,216.5 516.8,27.5 "/>
<polygon class="st0" points="1280,216.5 844,216.5 1171.1,27.5 "/>
<polygon class="st0" points="844,216.5 1062,-161.1 1171.1,27.5 "/>
<polygon class="st0" points="844,216.5 516.8,27.5 625.9,-161.1 "/>
<polygon class="st0" points="844,216.5 625.9,-161.1 844,-161.1 "/>
<polygon class="st0" points="844,216.5 844,-161.1 1062,-161.1 "/>
<polygon class="st0" points="1134.7,216.5 989.3,216.5 1062,90.6 "/>
<polygon class="st0" points="1134.7,216.5 1062,90.6 1207.3,90.6 "/>
<polygon class="st0" points="989.3,216.5 916.6,90.6 1062,90.6 "/>
<polygon class="st0" points="1062,90.6 916.6,90.6 989.3,-35.3 "/>
<polygon class="st0" points="1207.3,90.6 1062,90.6 1134.7,-35.3 "/>
<polygon class="st0" points="1062,90.6 989.3,-35.3 1134.7,-35.3 "/>
<polygon class="st0" points="1280,342.4 1062,342.4 1280,-35.3 "/>
<polygon class="st0" points="1498,342.4 1280,342.4 1280,-35.3 "/>
<polygon class="st0" points="1498,342.4 1280,-35.3 1607.2,153.7 "/>
<polygon class="st0" points="1062,342.4 952.8,153.7 1280,-35.3 "/>
<polygon class="st0" points="1607.2,153.7 1280,-35.3 1716.1,-35.3 "/>
<polygon class="st0" points="952.8,153.7 844,-35.3 1280,-35.3 "/>
<polygon class="st0" points="1280,-35.3 844,-35.3 952.8,-224.2 "/>
<polygon class="st0" points="1716.1,-35.3 1280,-35.3 1607.2,-224.2 "/>
<polygon class="st0" points="1716.1,216.5 1280,216.5 1498,-161.1 "/>
<polygon class="st0" points="1716.1,216.5 1498,-161.1 1934.1,-161.1 "/>
<polygon class="st0" points="1280,216.5 1062,-161.1 1498,-161.1 "/>
<polygon class="st0" points="1716.1,90.6 1643.4,90.6 1716.1,-35.3 "/>
<polygon class="st0" points="1788.7,90.6 1716.1,90.6 1716.1,-35.3 "/>
<polygon class="st0" points="1788.7,90.6 1716.1,-35.3 1825.1,27.7 "/>
<polygon class="st0" points="1643.4,90.6 1607,27.7 1716.1,-35.3 "/>
<polygon class="st0" points="1825.1,27.7 1716.1,-35.3 1861.4,-35.3 "/>
<polygon class="st0" points="1607,27.7 1570.7,-35.3 1716.1,-35.3 "/>
<polygon class="st0" points="1716.1,-35.3 1570.7,-35.3 1607,-98.2 "/>
<polygon class="st0" points="1861.4,-35.3 1716.1,-35.3 1825.1,-98.2 "/>
<polygon class="st0" points="1716.1,-35.3 1788.7,-161.1 1825.1,-98.2 "/>
<polygon class="st0" points="1716.1,-35.3 1607,-98.2 1643.4,-161.1 "/>
<polygon class="st0" points="1716.1,-35.3 1643.4,-161.1 1716.1,-161.1 "/>
<polygon class="st0" points="1716.1,-35.3 1716.1,-161.1 1788.7,-161.1 "/>
<polygon class="st0" points="2006.8,216.5 1861.4,216.5 1934.1,90.6 "/>
<polygon class="st0" points="2006.8,216.5 1934.1,90.6 2079.4,90.6 "/>
<polygon class="st0" points="1861.4,216.5 1788.7,90.6 1934.1,90.6 "/>
<polygon class="st0" points="1934.1,90.6 1788.7,90.6 1861.4,-35.3 "/>
<polygon class="st0" points="2079.4,90.6 1934.1,90.6 2006.8,-35.3 "/>
<polygon class="st0" points="1934.1,90.6 1861.4,-35.3 2006.8,-35.3 "/>
<polygon class="st0" points="2152.1,342.4 2079.4,342.4 2152.1,216.5 "/>
<polygon class="st0" points="2224.8,342.4 2152.1,342.4 2152.1,216.5 "/>
<polygon class="st0" points="2224.8,342.4 2152.1,216.5 2261.2,279.5 "/>
<polygon class="st0" points="2079.4,342.4 2043,279.5 2152.1,216.5 "/>
<polygon class="st0" points="2261.2,279.5 2152.1,216.5 2297.4,216.5 "/>
<polygon class="st0" points="2043,279.5 2006.8,216.5 2152.1,216.5 "/>
<polygon class="st0" points="2152.1,216.5 2006.8,216.5 2043,153.5 "/>
<polygon class="st0" points="2297.4,216.5 2152.1,216.5 2261.2,153.5 "/>
<polygon class="st0" points="2152.1,216.5 2224.8,90.6 2261.2,153.5 "/>
<polygon class="st0" points="2152.1,216.5 2043,153.5 2079.4,90.6 "/>
<polygon class="st0" points="2152.1,216.5 2079.4,90.6 2152.1,90.6 "/>
<polygon class="st0" points="2152.1,216.5 2152.1,90.6 2224.8,90.6 "/>
<polygon class="st0" points="2224.8,594.1 2079.4,594.1 2152.1,468.2 "/>
<polygon class="st0" points="2224.8,594.1 2152.1,468.2 2297.4,468.2 "/>
<polygon class="st0" points="2079.4,594.1 2006.8,468.2 2152.1,468.2 "/>
<polygon class="st0" points="2152.1,468.2 2006.8,468.2 2079.4,342.4 "/>
<polygon class="st0" points="2297.4,468.2 2152.1,468.2 2224.8,342.4 "/>
<polygon class="st0" points="2152.1,468.2 2079.4,342.4 2224.8,342.4 "/>
<polygon class="st0" points="2152.1,845.9 2079.4,845.9 2152.1,720 "/>
<polygon class="st0" points="2224.8,845.9 2152.1,845.9 2152.1,720 "/>
<polygon class="st0" points="2224.8,845.9 2152.1,720 2261.2,783 "/>
<polygon class="st0" points="2079.4,845.9 2043,783 2152.1,720 "/>
<polygon class="st0" points="2261.2,783 2152.1,720 2297.4,720 "/>
<polygon class="st0" points="2043,783 2006.8,720 2152.1,720 "/>
<polygon class="st0" points="2152.1,720 2006.8,720 2043,657 "/>
<polygon class="st0" points="2297.4,720 2152.1,720 2261.2,657 "/>
<polygon class="st0" points="2152.1,720 2224.8,594.1 2261.2,657 "/>
<polygon class="st0" points="2152.1,720 2043,657 2079.4,594.1 "/>
<polygon class="st0" points="2152.1,720 2079.4,594.1 2152.1,594.1 "/>
<polygon class="st0" points="2152.1,720 2152.1,594.1 2224.8,594.1 "/>
<polygon class="st0" points="2152.1,1097.6 2079.4,1097.6 2152.1,971.8 "/>
<polygon class="st0" points="2224.8,1097.6 2152.1,1097.6 2152.1,971.8 "/>
<polygon class="st0" points="2224.8,1097.6 2152.1,971.8 2261.2,1034.7 "/>
<polygon class="st0" points="2079.4,1097.6 2043,1034.7 2152.1,971.8 "/>
<polygon class="st0" points="2261.2,1034.7 2152.1,971.8 2297.4,971.8 "/>
<polygon class="st0" points="2043,1034.7 2006.8,971.8 2152.1,971.8 "/>
<polygon class="st0" points="2152.1,971.8 2006.8,971.8 2043,908.8 "/>
<polygon class="st0" points="2297.4,971.8 2152.1,971.8 2261.2,908.8 "/>
<polygon class="st0" points="2152.1,971.8 2224.8,845.9 2261.2,908.8 "/>
<polygon class="st0" points="2152.1,971.8 2043,908.8 2079.4,845.9 "/>
<polygon class="st0" points="2152.1,971.8 2079.4,845.9 2152.1,845.9 "/>
<polygon class="st0" points="2152.1,971.8 2152.1,845.9 2224.8,845.9 "/>
<polygon class="st0" points="2152.1,1349.4 2079.4,1349.4 2152.1,1223.5 "/>
<polygon class="st0" points="2224.8,1349.4 2152.1,1349.4 2152.1,1223.5 "/>
<polygon class="st0" points="2224.8,1349.4 2152.1,1223.5 2261.2,1286.5 "/>
<polygon class="st0" points="2079.4,1349.4 2043,1286.5 2152.1,1223.5 "/>
<polygon class="st0" points="2261.2,1286.5 2152.1,1223.5 2297.4,1223.5 "/>
<polygon class="st0" points="2043,1286.5 2006.8,1223.5 2152.1,1223.5 "/>
<polygon class="st0" points="2152.1,1223.5 2006.8,1223.5 2043,1160.5 "/>
<polygon class="st0" points="2297.4,1223.5 2152.1,1223.5 2261.2,1160.5 "/>
<polygon class="st0" points="2152.1,1223.5 2224.8,1097.6 2261.2,1160.5 "/>
<polygon class="st0" points="2152.1,1223.5 2043,1160.5 2079.4,1097.6 "/>
<polygon class="st0" points="2152.1,1223.5 2079.4,1097.6 2152.1,1097.6 "/>
<polygon class="st0" points="2152.1,1223.5 2152.1,1097.6 2224.8,1097.6 "/>
<polygon class="st0" points="2006.8,1475.3 1861.4,1475.3 1934.1,1349.4 "/>
<polygon class="st0" points="2006.8,1475.3 1934.1,1349.4 2079.4,1349.4 "/>
<polygon class="st0" points="1861.4,1475.3 1788.7,1349.4 1934.1,1349.4 "/>
<polygon class="st0" points="1934.1,1349.4 1788.7,1349.4 1861.4,1223.5 "/>
<polygon class="st0" points="2079.4,1349.4 1934.1,1349.4 2006.8,1223.5 "/>
<polygon class="st0" points="1934.1,1349.4 1861.4,1223.5 2006.8,1223.5 "/>
<polygon class="st0" points="1788.7,1601.1 1643.4,1601.1 1716.1,1475.3 "/>
<polygon class="st0" points="1788.7,1601.1 1716.1,1475.3 1861.4,1475.3 "/>
<polygon class="st0" points="1643.4,1601.1 1570.7,1475.3 1716.1,1475.3 "/>
<polygon class="st0" points="1716.1,1475.3 1570.7,1475.3 1643.4,1349.4 "/>
<polygon class="st0" points="1861.4,1475.3 1716.1,1475.3 1788.7,1349.4 "/>
<polygon class="st0" points="1716.1,1475.3 1643.4,1349.4 1788.7,1349.4 "/>
<polygon class="st0" points="1570.7,1727 1425.3,1727 1498,1601.1 "/>
<polygon class="st0" points="1570.7,1727 1498,1601.1 1643.4,1601.1 "/>
<polygon class="st0" points="1425.3,1727 1352.7,1601.1 1498,1601.1 "/>
<polygon class="st0" points="1498,1601.1 1352.7,1601.1 1425.3,1475.3 "/>
<polygon class="st0" points="1643.4,1601.1 1498,1601.1 1570.7,1475.3 "/>
<polygon class="st0" points="1498,1601.1 1425.3,1475.3 1570.7,1475.3 "/>
<polygon class="st0" points="1280,1852.9 1207.3,1852.9 1280,1727 "/>
<polygon class="st0" points="1352.7,1852.9 1280,1852.9 1280,1727 "/>
<polygon class="st0" points="1352.7,1852.9 1280,1727 1389.1,1790 "/>
<polygon class="st0" points="1207.3,1852.9 1170.9,1790 1280,1727 "/>
<polygon class="st0" points="1389.1,1790 1280,1727 1425.3,1727 "/>
<polygon class="st0" points="1170.9,1790 1134.7,1727 1280,1727 "/>
<polygon class="st0" points="1280,1727 1134.7,1727 1170.9,1664 "/>
<polygon class="st0" points="1425.3,1727 1280,1727 1389.1,1664 "/>
<polygon class="st0" points="1280,1727 1352.7,1601.1 1389.1,1664 "/>
<polygon class="st0" points="1280,1727 1170.9,1664 1207.3,1601.1 "/>
<polygon class="st0" points="1280,1727 1207.3,1601.1 1280,1601.1 "/>
<polygon class="st0" points="1280,1727 1280,1601.1 1352.7,1601.1 "/>
<polygon class="st0" points="1062,1727 989.3,1727 1062,1601.1 "/>
<polygon class="st0" points="1134.7,1727 1062,1727 1062,1601.1 "/>
<polygon class="st0" points="1134.7,1727 1062,1601.1 1171,1664.1 "/>
<polygon class="st0" points="989.3,1727 952.9,1664.1 1062,1601.1 "/>
<polygon class="st0" points="1171,1664.1 1062,1601.1 1207.3,1601.1 "/>
<polygon class="st0" points="952.9,1664.1 916.6,1601.1 1062,1601.1 "/>
<polygon class="st0" points="1062,1601.1 916.6,1601.1 952.9,1538.2 "/>
<polygon class="st0" points="1207.3,1601.1 1062,1601.1 1171,1538.2 "/>
<polygon class="st0" points="1062,1601.1 1134.7,1475.3 1171,1538.2 "/>
<polygon class="st0" points="1062,1601.1 952.9,1538.2 989.3,1475.3 "/>
<polygon class="st0" points="1062,1601.1 989.3,1475.3 1062,1475.3 "/>
<polygon class="st0" points="1062,1601.1 1062,1475.3 1134.7,1475.3 "/>
<polygon class="st0" points="916.6,1601.1 771.3,1601.1 844,1475.3 "/>
<polygon class="st0" points="916.6,1601.1 844,1475.3 989.3,1475.3 "/>
<polygon class="st0" points="771.3,1601.1 698.6,1475.3 844,1475.3 "/>
<polygon class="st0" points="844,1475.3 698.6,1475.3 771.3,1349.4 "/>
<polygon class="st0" points="989.3,1475.3 844,1475.3 916.6,1349.4 "/>
<polygon class="st0" points="844,1475.3 771.3,1349.4 916.6,1349.4 "/>
<polygon class="st0" points="625.9,1475.3 553.2,1475.3 625.9,1349.4 "/>
<polygon class="st0" points="698.6,1475.3 625.9,1475.3 625.9,1349.4 "/>
<polygon class="st0" points="698.6,1475.3 625.9,1349.4 735,1412.4 "/>
<polygon class="st0" points="553.2,1475.3 516.9,1412.4 625.9,1349.4 "/>
<polygon class="st0" points="735,1412.4 625.9,1349.4 771.3,1349.4 "/>
<polygon class="st0" points="516.9,1412.4 480.6,1349.4 625.9,1349.4 "/>
<polygon class="st0" points="625.9,1349.4 480.6,1349.4 516.9,1286.4 "/>
<polygon class="st0" points="771.3,1349.4 625.9,1349.4 735,1286.4 "/>
<polygon class="st0" points="625.9,1349.4 698.6,1223.5 735,1286.4 "/>
<polygon class="st0" points="625.9,1349.4 516.9,1286.4 553.2,1223.5 "/>
<polygon class="st0" points="625.9,1349.4 553.2,1223.5 625.9,1223.5 "/>
<polygon class="st0" points="625.9,1349.4 625.9,1223.5 698.6,1223.5 "/>
<polygon class="st0" points="480.6,1349.4 335.2,1349.4 407.9,1223.5 "/>
<polygon class="st0" points="480.6,1349.4 407.9,1223.5 553.2,1223.5 "/>
<polygon class="st0" points="335.2,1349.4 262.5,1223.5 407.9,1223.5 "/>
<polygon class="st0" points="407.9,1223.5 262.5,1223.5 335.2,1097.6 "/>
<polygon class="st0" points="553.2,1223.5 407.9,1223.5 480.6,1097.6 "/>
<polygon class="st0" points="407.9,1223.5 335.2,1097.6 480.6,1097.6 "/>
<polygon class="st0" points="407.9,1097.6 335.2,1097.6 407.9,971.8 "/>
<polygon class="st0" points="480.6,1097.6 407.9,1097.6 407.9,971.8 "/>
<polygon class="st0" points="480.6,1097.6 407.9,971.8 517,1034.7 "/>
<polygon class="st0" points="335.2,1097.6 298.8,1034.7 407.9,971.8 "/>
<polygon class="st0" points="517,1034.7 407.9,971.8 553.2,971.8 "/>
<polygon class="st0" points="298.8,1034.7 262.5,971.8 407.9,971.8 "/>
<polygon class="st0" points="407.9,971.8 262.5,971.8 298.8,908.8 "/>
<polygon class="st0" points="553.2,971.8 407.9,971.8 517,908.8 "/>
<polygon class="st0" points="407.9,971.8 480.6,845.9 517,908.8 "/>
<polygon class="st0" points="407.9,971.8 298.8,908.8 335.2,845.9 "/>
<polygon class="st0" points="407.9,971.8 335.2,845.9 407.9,845.9 "/>
<polygon class="st0" points="407.9,971.8 407.9,845.9 480.6,845.9 "/>
<polygon class="st0" points="480.6,845.9 335.2,845.9 407.9,720 "/>
<polygon class="st0" points="480.6,845.9 407.9,720 553.2,720 "/>
<polygon class="st0" points="335.2,845.9 262.5,720 407.9,720 "/>
<polygon class="st0" points="407.9,720 262.5,720 335.2,594.1 "/>
<polygon class="st0" points="553.2,720 407.9,720 480.6,594.1 "/>
<polygon class="st0" points="407.9,720 335.2,594.1 480.6,594.1 "/>
<polygon class="st0" points="407.9,845.9 189.9,845.9 407.9,468.2 "/>
<polygon class="st0" points="625.9,845.9 407.9,845.9 407.9,468.2 "/>
<polygon class="st0" points="625.9,845.9 407.9,468.2 735.1,657.2 "/>
<polygon class="st0" points="189.9,845.9 80.7,657.2 407.9,468.2 "/>
<polygon class="st0" points="735.1,657.2 407.9,468.2 844,468.2 "/>
<polygon class="st0" points="80.7,657.2 -28.1,468.2 407.9,468.2 "/>
<polygon class="st0" points="407.9,468.2 -28.1,468.2 80.7,279.3 "/>
<polygon class="st0" points="844,468.2 407.9,468.2 735.1,279.3 "/>
<polygon class="st0" points="407.9,468.2 625.9,90.6 735.1,279.3 "/>
<polygon class="st0" points="407.9,468.2 80.7,279.3 189.9,90.6 "/>
<polygon class="st0" points="407.9,468.2 189.9,90.6 407.9,90.6 "/>
<polygon class="st0" points="407.9,468.2 407.9,90.6 625.9,90.6 "/>
<polygon class="st0" points="407.9,342.4 335.2,342.4 407.9,216.5 "/>
<polygon class="st0" points="480.6,342.4 407.9,342.4 407.9,216.5 "/>
<polygon class="st0" points="480.6,342.4 407.9,216.5 517,279.5 "/>
<polygon class="st0" points="335.2,342.4 298.8,279.5 407.9,216.5 "/>
<polygon class="st0" points="517,279.5 407.9,216.5 553.2,216.5 "/>
<polygon class="st0" points="298.8,279.5 262.5,216.5 407.9,216.5 "/>
<polygon class="st0" points="407.9,216.5 262.5,216.5 298.8,153.5 "/>
<polygon class="st0" points="553.2,216.5 407.9,216.5 517,153.5 "/>
<polygon class="st0" points="407.9,216.5 480.6,90.6 517,153.5 "/>
<polygon class="st0" points="407.9,216.5 298.8,153.5 335.2,90.6 "/>
<polygon class="st0" points="407.9,216.5 335.2,90.6 407.9,90.6 "/>
<polygon class="st0" points="407.9,216.5 407.9,90.6 480.6,90.6 "/>
<polygon class="st0" points="625.9,216.5 553.2,216.5 625.9,90.6 "/>
<polygon class="st0" points="698.6,216.5 625.9,216.5 625.9,90.6 "/>
<polygon class="st0" points="698.6,216.5 625.9,90.6 735,153.6 "/>
<polygon class="st0" points="553.2,216.5 516.9,153.6 625.9,90.6 "/>
<polygon class="st0" points="735,153.6 625.9,90.6 771.3,90.6 "/>
<polygon class="st0" points="516.9,153.6 480.6,90.6 625.9,90.6 "/>
<polygon class="st0" points="625.9,90.6 480.6,90.6 516.9,27.6 "/>
<polygon class="st0" points="771.3,90.6 625.9,90.6 735,27.6 "/>
<polygon class="st0" points="625.9,90.6 698.6,-35.3 735,27.6 "/>
<polygon class="st0" points="625.9,90.6 516.9,27.6 553.2,-35.3 "/>
<polygon class="st0" points="625.9,90.6 553.2,-35.3 625.9,-35.3 "/>
<polygon class="st0" points="625.9,90.6 625.9,-35.3 698.6,-35.3 "/>
<polygon class="st0" points="916.6,90.6 771.3,90.6 844,-35.3 "/>
<polygon class="st0" points="916.6,90.6 844,-35.3 989.3,-35.3 "/>
<polygon class="st0" points="771.3,90.6 698.6,-35.3 844,-35.3 "/>
<polygon class="st0" points="844,-35.3 698.6,-35.3 771.3,-161.1 "/>
<polygon class="st0" points="989.3,-35.3 844,-35.3 916.6,-161.1 "/>
<polygon class="st0" points="844,-35.3 771.3,-161.1 916.6,-161.1 "/>
<polygon class="st0" points="1062,90.6 916.6,90.6 1062,-161.1 "/>
<polygon class="st0" points="1207.3,90.6 1062,90.6 1062,-161.1 "/>
<polygon class="st0" points="1207.3,90.6 1062,-161.1 1280.1,-35.2 "/>
<polygon class="st0" points="916.6,90.6 843.9,-35.2 1062,-161.1 "/>
<polygon class="st0" points="1280.1,-35.2 1062,-161.1 1352.7,-161.1 "/>
<polygon class="st0" points="843.9,-35.2 771.3,-161.1 1062,-161.1 "/>
<polygon class="st0" points="1062,-161.1 771.3,-161.1 843.9,-287.1 "/>
<polygon class="st0" points="1352.7,-161.1 1062,-161.1 1280.1,-287.1 "/>
<polygon class="st0" points="1352.7,-161.1 1207.3,-161.1 1280,-287 "/>
<polygon class="st0" points="1352.7,-161.1 1280,-287 1425.3,-287 "/>
<polygon class="st0" points="1207.3,-161.1 1134.7,-287 1280,-287 "/>
<polygon class="st0" points="1788.7,-161.1 1643.4,-161.1 1716.1,-287 "/>
<polygon class="st0" points="1788.7,-161.1 1716.1,-287 1861.4,-287 "/>
<polygon class="st0" points="1643.4,-161.1 1570.7,-287 1716.1,-287 "/>
<polygon class="st0" points="1934.1,-35.3 1861.4,-35.3 1934.1,-161.1 "/>
<polygon class="st0" points="2006.8,-35.3 1934.1,-35.3 1934.1,-161.1 "/>
<polygon class="st0" points="2006.8,-35.3 1934.1,-161.1 2043.1,-98.2 "/>
<polygon class="st0" points="1861.4,-35.3 1825,-98.2 1934.1,-161.1 "/>
<polygon class="st0" points="2043.1,-98.2 1934.1,-161.1 2079.4,-161.1 "/>
<polygon class="st0" points="1825,-98.2 1788.7,-161.1 1934.1,-161.1 "/>
<polygon class="st0" points="1934.1,-161.1 1788.7,-161.1 1825,-224.1 "/>
<polygon class="st0" points="2079.4,-161.1 1934.1,-161.1 2043.1,-224.1 "/>
<polygon class="st0" points="1934.1,-161.1 2006.8,-287 2043.1,-224.1 "/>
<polygon class="st0" points="1934.1,-161.1 1825,-224.1 1861.4,-287 "/>
<polygon class="st0" points="1934.1,-161.1 1861.4,-287 1934.1,-287 "/>
<polygon class="st0" points="1934.1,-161.1 1934.1,-287 2006.8,-287 "/>
<polygon class="st0" points="2152.1,90.6 2079.4,90.6 2152.1,-35.3 "/>
<polygon class="st0" points="2224.8,90.6 2152.1,90.6 2152.1,-35.3 "/>
<polygon class="st0" points="2224.8,90.6 2152.1,-35.3 2261.2,27.7 "/>
<polygon class="st0" points="2079.4,90.6 2043,27.7 2152.1,-35.3 "/>
<polygon class="st0" points="2261.2,27.7 2152.1,-35.3 2297.4,-35.3 "/>
<polygon class="st0" points="2043,27.7 2006.8,-35.3 2152.1,-35.3 "/>
<polygon class="st0" points="2152.1,-35.3 2006.8,-35.3 2043,-98.2 "/>
<polygon class="st0" points="2297.4,-35.3 2152.1,-35.3 2261.2,-98.2 "/>
<polygon class="st0" points="2152.1,-35.3 2224.8,-161.1 2261.2,-98.2 "/>
<polygon class="st0" points="2152.1,-35.3 2043,-98.2 2079.4,-161.1 "/>
<polygon class="st0" points="2152.1,-35.3 2079.4,-161.1 2152.1,-161.1 "/>
<polygon class="st0" points="2152.1,-35.3 2152.1,-161.1 2224.8,-161.1 "/>
<polygon class="st0" points="2370.1,342.4 2224.8,342.4 2370.1,90.6 "/>
<polygon class="st0" points="2515.5,342.4 2370.1,342.4 2370.1,90.6 "/>
<polygon class="st0" points="2515.5,342.4 2370.1,90.6 2588.2,216.6 "/>
<polygon class="st0" points="2224.8,342.4 2152,216.6 2370.1,90.6 "/>
<polygon class="st0" points="2588.2,216.6 2370.1,90.6 2660.8,90.6 "/>
<polygon class="st0" points="2152,216.6 2079.4,90.6 2370.1,90.6 "/>
<polygon class="st0" points="2370.1,90.6 2079.4,90.6 2152,-35.3 "/>
<polygon class="st0" points="2660.8,90.6 2370.1,90.6 2588.2,-35.3 "/>
<polygon class="st0" points="2370.1,90.6 2515.5,-161.1 2588.2,-35.3 "/>
<polygon class="st0" points="2370.1,90.6 2152,-35.3 2224.8,-161.1 "/>
<polygon class="st0" points="2370.1,90.6 2224.8,-161.1 2370.1,-161.1 "/>
<polygon class="st0" points="2370.1,90.6 2370.1,-161.1 2515.5,-161.1 "/>
<polygon class="st0" points="2442.8,468.2 2297.4,468.2 2370.1,342.4 "/>
<polygon class="st0" points="2442.8,468.2 2370.1,342.4 2515.5,342.4 "/>
<polygon class="st0" points="2297.4,468.2 2224.8,342.4 2370.1,342.4 "/>
<polygon class="st0" points="2370.1,342.4 2224.8,342.4 2297.4,216.5 "/>
<polygon class="st0" points="2515.5,342.4 2370.1,342.4 2442.8,216.5 "/>
<polygon class="st0" points="2370.1,342.4 2297.4,216.5 2442.8,216.5 "/>
<polygon class="st0" points="2442.8,720 2297.4,720 2370.1,594.1 "/>
<polygon class="st0" points="2442.8,720 2370.1,594.1 2515.5,594.1 "/>
<polygon class="st0" points="2297.4,720 2224.8,594.1 2370.1,594.1 "/>
<polygon class="st0" points="2370.1,594.1 2224.8,594.1 2297.4,468.2 "/>
<polygon class="st0" points="2515.5,594.1 2370.1,594.1 2442.8,468.2 "/>
<polygon class="st0" points="2370.1,594.1 2297.4,468.2 2442.8,468.2 "/>
<polygon class="st0" points="2370.1,971.8 2297.4,971.8 2370.1,845.9 "/>
<polygon class="st0" points="2442.8,971.8 2370.1,971.8 2370.1,845.9 "/>
<polygon class="st0" points="2442.8,971.8 2370.1,845.9 2479.2,908.9 "/>
<polygon class="st0" points="2297.4,971.8 2261.1,908.9 2370.1,845.9 "/>
<polygon class="st0" points="2479.2,908.9 2370.1,845.9 2515.5,845.9 "/>
<polygon class="st0" points="2261.1,908.9 2224.8,845.9 2370.1,845.9 "/>
<polygon class="st0" points="2370.1,845.9 2224.8,845.9 2261.1,782.9 "/>
<polygon class="st0" points="2515.5,845.9 2370.1,845.9 2479.2,782.9 "/>
<polygon class="st0" points="2370.1,845.9 2442.8,720 2479.2,782.9 "/>
<polygon class="st0" points="2370.1,845.9 2261.1,782.9 2297.4,720 "/>
<polygon class="st0" points="2370.1,845.9 2297.4,720 2370.1,720 "/>
<polygon class="st0" points="2370.1,845.9 2370.1,720 2442.8,720 "/>
<polygon class="st0" points="2442.8,1223.5 2297.4,1223.5 2370.1,1097.6 "/>
<polygon class="st0" points="2442.8,1223.5 2370.1,1097.6 2515.5,1097.6 "/>
<polygon class="st0" points="2297.4,1223.5 2224.8,1097.6 2370.1,1097.6 "/>
<polygon class="st0" points="2370.1,1097.6 2224.8,1097.6 2297.4,971.8 "/>
<polygon class="st0" points="2515.5,1097.6 2370.1,1097.6 2442.8,971.8 "/>
<polygon class="st0" points="2370.1,1097.6 2297.4,971.8 2442.8,971.8 "/>
<polygon class="st0" points="2588.1,1727 2152.1,1727 2370.1,1349.4 "/>
<polygon class="st0" points="2588.1,1727 2370.1,1349.4 2806.2,1349.4 "/>
<polygon class="st0" points="2152.1,1727 1934.1,1349.4 2370.1,1349.4 "/>
<polygon class="st0" points="2370.1,1349.4 1934.1,1349.4 2152.1,971.8 "/>
<polygon class="st0" points="2806.2,1349.4 2370.1,1349.4 2588.1,971.8 "/>
<polygon class="st0" points="2370.1,1349.4 2152.1,971.8 2588.1,971.8 "/>
<polygon class="st0" points="2224.8,1601.1 2079.4,1601.1 2152.1,1475.3 "/>
<polygon class="st0" points="2224.8,1601.1 2152.1,1475.3 2297.4,1475.3 "/>
<polygon class="st0" points="2079.4,1601.1 2006.8,1475.3 2152.1,1475.3 "/>
<polygon class="st0" points="2152.1,1475.3 2006.8,1475.3 2079.4,1349.4 "/>
<polygon class="st0" points="2297.4,1475.3 2152.1,1475.3 2224.8,1349.4 "/>
<polygon class="st0" points="2152.1,1475.3 2079.4,1349.4 2224.8,1349.4 "/>
<polygon class="st0" points="1934.1,1727 1861.4,1727 1934.1,1601.1 "/>
<polygon class="st0" points="2006.8,1727 1934.1,1727 1934.1,1601.1 "/>
<polygon class="st0" points="2006.8,1727 1934.1,1601.1 2043.1,1664.1 "/>
<polygon class="st0" points="1861.4,1727 1825,1664.1 1934.1,1601.1 "/>
<polygon class="st0" points="2043.1,1664.1 1934.1,1601.1 2079.4,1601.1 "/>
<polygon class="st0" points="1825,1664.1 1788.7,1601.1 1934.1,1601.1 "/>
<polygon class="st0" points="1934.1,1601.1 1788.7,1601.1 1825,1538.2 "/>
<polygon class="st0" points="2079.4,1601.1 1934.1,1601.1 2043.1,1538.2 "/>
<polygon class="st0" points="1934.1,1601.1 2006.8,1475.3 2043.1,1538.2 "/>
<polygon class="st0" points="1934.1,1601.1 1825,1538.2 1861.4,1475.3 "/>
<polygon class="st0" points="1934.1,1601.1 1861.4,1475.3 1934.1,1475.3 "/>
<polygon class="st0" points="1934.1,1601.1 1934.1,1475.3 2006.8,1475.3 "/>
<polygon class="st0" points="1788.7,1852.9 1643.4,1852.9 1716.1,1727 "/>
<polygon class="st0" points="1788.7,1852.9 1716.1,1727 1861.4,1727 "/>
<polygon class="st0" points="1643.4,1852.9 1570.7,1727 1716.1,1727 "/>
<polygon class="st0" points="1716.1,1727 1570.7,1727 1643.4,1601.1 "/>
<polygon class="st0" points="1861.4,1727 1716.1,1727 1788.7,1601.1 "/>
<polygon class="st0" points="1716.1,1727 1643.4,1601.1 1788.7,1601.1 "/>
<polygon class="st0" points="1498,1852.9 1352.7,1852.9 1389,1789.9 "/>
<polygon class="st0" points="1643.4,1852.9 1498,1852.9 1607.1,1789.9 "/>
<polygon class="st0" points="1498,1852.9 1570.7,1727 1607.1,1789.9 "/>
<polygon class="st0" points="1498,1852.9 1389,1789.9 1425.3,1727 "/>
<polygon class="st0" points="1498,1852.9 1425.3,1727 1498,1727 "/>
<polygon class="st0" points="1498,1852.9 1498,1727 1570.7,1727 "/>
<polygon class="st0" points="1062,1852.9 916.6,1852.9 989.3,1727 "/>
<polygon class="st0" points="1207.3,1852.9 1062,1852.9 1134.7,1727 "/>
<polygon class="st0" points="1062,1852.9 989.3,1727 1134.7,1727 "/>
<polygon class="st0" points="844,1727 553.2,1727 698.6,1475.3 "/>
<polygon class="st0" points="1134.7,1727 844,1727 989.3,1475.3 "/>
<polygon class="st0" points="844,1727 698.6,1475.3 989.3,1475.3 "/>
<polygon class="st0" points="698.6,1727 553.2,1727 625.9,1601.1 "/>
<polygon class="st0" points="698.6,1727 625.9,1601.1 771.3,1601.1 "/>
<polygon class="st0" points="553.2,1727 480.6,1601.1 625.9,1601.1 "/>
<polygon class="st0" points="625.9,1601.1 480.6,1601.1 553.2,1475.3 "/>
<polygon class="st0" points="771.3,1601.1 625.9,1601.1 698.6,1475.3 "/>
<polygon class="st0" points="625.9,1601.1 553.2,1475.3 698.6,1475.3 "/>
<polygon class="st0" points="480.6,1601.1 335.2,1601.1 407.9,1475.3 "/>
<polygon class="st0" points="480.6,1601.1 407.9,1475.3 553.2,1475.3 "/>
<polygon class="st0" points="335.2,1601.1 262.5,1475.3 407.9,1475.3 "/>
<polygon class="st0" points="407.9,1475.3 262.5,1475.3 335.2,1349.4 "/>
<polygon class="st0" points="553.2,1475.3 407.9,1475.3 480.6,1349.4 "/>
<polygon class="st0" points="407.9,1475.3 335.2,1349.4 480.6,1349.4 "/>
<polygon class="st0" points="189.9,1475.3 117.2,1475.3 189.9,1349.4 "/>
<polygon class="st0" points="262.5,1475.3 189.9,1475.3 189.9,1349.4 "/>
<polygon class="st0" points="262.5,1475.3 189.9,1349.4 298.9,1412.4 "/>
<polygon class="st0" points="117.2,1475.3 80.8,1412.4 189.9,1349.4 "/>
<polygon class="st0" points="298.9,1412.4 189.9,1349.4 335.2,1349.4 "/>
<polygon class="st0" points="80.8,1412.4 44.5,1349.4 189.9,1349.4 "/>
<polygon class="st0" points="189.9,1349.4 44.5,1349.4 80.8,1286.4 "/>
<polygon class="st0" points="335.2,1349.4 189.9,1349.4 298.9,1286.4 "/>
<polygon class="st0" points="189.9,1349.4 262.5,1223.5 298.9,1286.4 "/>
<polygon class="st0" points="189.9,1349.4 80.8,1286.4 117.2,1223.5 "/>
<polygon class="st0" points="189.9,1349.4 117.2,1223.5 189.9,1223.5 "/>
<polygon class="st0" points="189.9,1349.4 189.9,1223.5 262.5,1223.5 "/>
<polygon class="st0" points="262.5,1223.5 117.2,1223.5 189.9,1097.6 "/>
<polygon class="st0" points="262.5,1223.5 189.9,1097.6 335.2,1097.6 "/>
<polygon class="st0" points="117.2,1223.5 44.5,1097.6 189.9,1097.6 "/>
<polygon class="st0" points="189.9,1097.6 44.5,1097.6 117.2,971.8 "/>
<polygon class="st0" points="335.2,1097.6 189.9,1097.6 262.5,971.8 "/>
<polygon class="st0" points="189.9,1097.6 117.2,971.8 262.5,971.8 "/>
<polygon class="st0" points="262.5,971.8 117.2,971.8 189.9,845.9 "/>
<polygon class="st0" points="262.5,971.8 189.9,845.9 335.2,845.9 "/>
<polygon class="st0" points="117.2,971.8 44.5,845.9 189.9,845.9 "/>
<polygon class="st0" points="189.9,845.9 44.5,845.9 117.2,720 "/>
<polygon class="st0" points="335.2,845.9 189.9,845.9 262.5,720 "/>
<polygon class="st0" points="189.9,845.9 117.2,720 262.5,720 "/>
<polygon class="st0" points="189.9,720 117.2,720 189.9,594.1 "/>
<polygon class="st0" points="262.5,720 189.9,720 189.9,594.1 "/>
<polygon class="st0" points="262.5,720 189.9,594.1 298.9,657.1 "/>
<polygon class="st0" points="117.2,720 80.8,657.1 189.9,594.1 "/>
<polygon class="st0" points="298.9,657.1 189.9,594.1 335.2,594.1 "/>
<polygon class="st0" points="80.8,657.1 44.5,594.1 189.9,594.1 "/>
<polygon class="st0" points="189.9,594.1 44.5,594.1 80.8,531.1 "/>
<polygon class="st0" points="335.2,594.1 189.9,594.1 298.9,531.1 "/>
<polygon class="st0" points="189.9,594.1 262.5,468.2 298.9,531.1 "/>
<polygon class="st0" points="189.9,594.1 80.8,531.1 117.2,468.2 "/>
<polygon class="st0" points="189.9,594.1 117.2,468.2 189.9,468.2 "/>
<polygon class="st0" points="189.9,594.1 189.9,468.2 262.5,468.2 "/>
<polygon class="st0" points="189.9,468.2 117.2,468.2 189.9,342.4 "/>
<polygon class="st0" points="262.5,468.2 189.9,468.2 189.9,342.4 "/>
<polygon class="st0" points="262.5,468.2 189.9,342.4 298.9,405.3 "/>
<polygon class="st0" points="117.2,468.2 80.8,405.3 189.9,342.4 "/>
<polygon class="st0" points="298.9,405.3 189.9,342.4 335.2,342.4 "/>
<polygon class="st0" points="80.8,405.3 44.5,342.4 189.9,342.4 "/>
<polygon class="st0" points="189.9,342.4 44.5,342.4 80.8,279.4 "/>
<polygon class="st0" points="335.2,342.4 189.9,342.4 298.9,279.4 "/>
<polygon class="st0" points="189.9,342.4 262.5,216.5 298.9,279.4 "/>
<polygon class="st0" points="189.9,342.4 80.8,279.4 117.2,216.5 "/>
<polygon class="st0" points="189.9,342.4 117.2,216.5 189.9,216.5 "/>
<polygon class="st0" points="189.9,342.4 189.9,216.5 262.5,216.5 "/>
<polygon class="st0" points="189.9,216.5 117.2,216.5 189.9,90.6 "/>
<polygon class="st0" points="262.5,216.5 189.9,216.5 189.9,90.6 "/>
<polygon class="st0" points="262.5,216.5 189.9,90.6 298.9,153.6 "/>
<polygon class="st0" points="117.2,216.5 80.8,153.6 189.9,90.6 "/>
<polygon class="st0" points="298.9,153.6 189.9,90.6 335.2,90.6 "/>
<polygon class="st0" points="80.8,153.6 44.5,90.6 189.9,90.6 "/>
<polygon class="st0" points="189.9,90.6 44.5,90.6 80.8,27.6 "/>
<polygon class="st0" points="335.2,90.6 189.9,90.6 298.9,27.6 "/>
<polygon class="st0" points="189.9,90.6 262.5,-35.3 298.9,27.6 "/>
<polygon class="st0" points="189.9,90.6 80.8,27.6 117.2,-35.3 "/>
<polygon class="st0" points="189.9,90.6 117.2,-35.3 189.9,-35.3 "/>
<polygon class="st0" points="189.9,90.6 189.9,-35.3 262.5,-35.3 "/>
<polygon class="st0" points="407.9,216.5 262.5,216.5 407.9,-35.3 "/>
<polygon class="st0" points="553.2,216.5 407.9,216.5 407.9,-35.3 "/>
<polygon class="st0" points="553.2,216.5 407.9,-35.3 626,90.7 "/>
<polygon class="st0" points="262.5,216.5 189.8,90.7 407.9,-35.3 "/>
<polygon class="st0" points="626,90.7 407.9,-35.3 698.6,-35.3 "/>
<polygon class="st0" points="189.8,90.7 117.2,-35.3 407.9,-35.3 "/>
<polygon class="st0" points="407.9,-35.3 117.2,-35.3 189.8,-161.2 "/>
<polygon class="st0" points="698.6,-35.3 407.9,-35.3 626,-161.2 "/>
<polygon class="st0" points="407.9,-35.3 553.2,-287 626,-161.2 "/>
<polygon class="st0" points="407.9,-35.3 189.8,-161.2 262.5,-287 "/>
<polygon class="st0" points="407.9,-35.3 262.5,-287 407.9,-287 "/>
<polygon class="st0" points="407.9,-35.3 407.9,-287 553.2,-287 "/>
<polygon class="st0" points="698.6,-35.3 553.2,-35.3 625.9,-161.1 "/>
<polygon class="st0" points="698.6,-35.3 625.9,-161.1 771.3,-161.1 "/>
<polygon class="st0" points="553.2,-35.3 480.6,-161.1 625.9,-161.1 "/>
<polygon class="st0" points="625.9,-161.1 480.6,-161.1 553.2,-287 "/>
<polygon class="st0" points="771.3,-161.1 625.9,-161.1 698.6,-287 "/>
<polygon class="st0" points="625.9,-161.1 553.2,-287 698.6,-287 "/>
<polygon class="st0" points="844,-161.1 771.3,-161.1 844,-287 "/>
<polygon class="st0" points="916.6,-161.1 844,-161.1 844,-287 "/>
<polygon class="st0" points="916.6,-161.1 844,-287 953,-224 "/>
<polygon class="st0" points="771.3,-161.1 734.9,-224 844,-287 "/>
<polygon class="st0" points="953,-224 844,-287 989.3,-287 "/>
<polygon class="st0" points="734.9,-224 698.6,-287 844,-287 "/>
<polygon class="st0" points="844,-287 698.6,-287 734.9,-350 "/>
<polygon class="st0" points="989.3,-287 844,-287 953,-350 "/>
<polygon class="st0" points="2152.1,-161.1 2079.4,-161.1 2152.1,-287 "/>
<polygon class="st0" points="2224.8,-161.1 2152.1,-161.1 2152.1,-287 "/>
<polygon class="st0" points="2224.8,-161.1 2152.1,-287 2261.2,-224 "/>
<polygon class="st0" points="2079.4,-161.1 2043,-224 2152.1,-287 "/>
<polygon class="st0" points="2261.2,-224 2152.1,-287 2297.4,-287 "/>
<polygon class="st0" points="2043,-224 2006.8,-287 2152.1,-287 "/>
<polygon class="st0" points="2152.1,-287 2006.8,-287 2043,-350 "/>
<polygon class="st0" points="2297.4,-287 2152.1,-287 2261.2,-350 "/>
<polygon class="st0" points="2370.1,90.6 2224.8,90.6 2370.1,-161.1 "/>
<polygon class="st0" points="2515.5,90.6 2370.1,90.6 2370.1,-161.1 "/>
<polygon class="st0" points="2515.5,90.6 2370.1,-161.1 2588.2,-35.2 "/>
<polygon class="st0" points="2224.8,90.6 2152,-35.2 2370.1,-161.1 "/>
<polygon class="st0" points="2588.2,-35.2 2370.1,-161.1 2660.8,-161.1 "/>
<polygon class="st0" points="2152,-35.2 2079.4,-161.1 2370.1,-161.1 "/>
<polygon class="st0" points="2370.1,-161.1 2079.4,-161.1 2152,-287.1 "/>
<polygon class="st0" points="2660.8,-161.1 2370.1,-161.1 2588.2,-287.1 "/>
<polygon class="st0" points="2660.8,90.6 2515.5,90.6 2588.1,-35.3 "/>
<polygon class="st0" points="2660.8,90.6 2588.1,-35.3 2733.5,-35.3 "/>
<polygon class="st0" points="2515.5,90.6 2442.8,-35.3 2588.1,-35.3 "/>
<polygon class="st0" points="2588.1,-35.3 2442.8,-35.3 2515.5,-161.1 "/>
<polygon class="st0" points="2733.5,-35.3 2588.1,-35.3 2660.8,-161.1 "/>
<polygon class="st0" points="2588.1,-35.3 2515.5,-161.1 2660.8,-161.1 "/>
<polygon class="st0" points="2588.1,468.2 2442.8,468.2 2588.1,216.5 "/>
<polygon class="st0" points="2733.5,468.2 2588.1,468.2 2588.1,216.5 "/>
<polygon class="st0" points="2733.5,468.2 2588.1,216.5 2806.3,342.5 "/>
<polygon class="st0" points="2442.8,468.2 2370,342.5 2588.1,216.5 "/>
<polygon class="st0" points="2370,342.5 2297.4,216.5 2588.1,216.5 "/>
<polygon class="st0" points="2588.1,216.5 2297.4,216.5 2370,90.5 "/>
<polygon class="st0" points="2588.1,216.5 2733.5,-35.3 2806.3,90.5 "/>
<polygon class="st0" points="2588.1,216.5 2370,90.5 2442.8,-35.3 "/>
<polygon class="st0" points="2588.1,216.5 2442.8,-35.3 2588.1,-35.3 "/>
<polygon class="st0" points="2588.1,216.5 2588.1,-35.3 2733.5,-35.3 "/>
<polygon class="st0" points="2588.1,594.1 2515.5,594.1 2588.1,468.2 "/>
<polygon class="st0" points="2660.8,594.1 2588.1,594.1 2588.1,468.2 "/>
<polygon class="st0" points="2660.8,594.1 2588.1,468.2 2697.2,531.2 "/>
<polygon class="st0" points="2515.5,594.1 2479.1,531.2 2588.1,468.2 "/>
<polygon class="st0" points="2697.2,531.2 2588.1,468.2 2733.5,468.2 "/>
<polygon class="st0" points="2479.1,531.2 2442.8,468.2 2588.1,468.2 "/>
<polygon class="st0" points="2588.1,468.2 2442.8,468.2 2479.1,405.3 "/>
<polygon class="st0" points="2733.5,468.2 2588.1,468.2 2697.2,405.3 "/>
<polygon class="st0" points="2588.1,468.2 2660.8,342.4 2697.2,405.3 "/>
<polygon class="st0" points="2588.1,468.2 2479.1,405.3 2515.5,342.4 "/>
<polygon class="st0" points="2588.1,468.2 2515.5,342.4 2588.1,342.4 "/>
<polygon class="st0" points="2588.1,468.2 2588.1,342.4 2660.8,342.4 "/>
<polygon class="st0" points="2806.2,1097.6 2370.1,1097.6 2588.1,720 "/>
<polygon class="st0" points="2370.1,1097.6 2152.1,720 2588.1,720 "/>
<polygon class="st0" points="2588.1,720 2152.1,720 2370.1,342.4 "/>
<polygon class="st0" points="2588.1,720 2370.1,342.4 2806.2,342.4 "/>
<polygon class="st0" points="2660.8,1097.6 2515.5,1097.6 2588.1,971.8 "/>
<polygon class="st0" points="2660.8,1097.6 2588.1,971.8 2733.5,971.8 "/>
<polygon class="st0" points="2515.5,1097.6 2442.8,971.8 2588.1,971.8 "/>
<polygon class="st0" points="2588.1,971.8 2442.8,971.8 2515.5,845.9 "/>
<polygon class="st0" points="2733.5,971.8 2588.1,971.8 2660.8,845.9 "/>
<polygon class="st0" points="2588.1,971.8 2515.5,845.9 2660.8,845.9 "/>
<polygon class="st0" points="2660.8,1349.4 2515.5,1349.4 2588.1,1223.5 "/>
<polygon class="st0" points="2660.8,1349.4 2588.1,1223.5 2733.5,1223.5 "/>
<polygon class="st0" points="2515.5,1349.4 2442.8,1223.5 2588.1,1223.5 "/>
<polygon class="st0" points="2588.1,1223.5 2442.8,1223.5 2515.5,1097.6 "/>
<polygon class="st0" points="2733.5,1223.5 2588.1,1223.5 2660.8,1097.6 "/>
<polygon class="st0" points="2588.1,1223.5 2515.5,1097.6 2660.8,1097.6 "/>
<polygon class="st0" points="2588.1,1601.1 2515.5,1601.1 2588.1,1475.3 "/>
<polygon class="st0" points="2660.8,1601.1 2588.1,1601.1 2588.1,1475.3 "/>
<polygon class="st0" points="2660.8,1601.1 2588.1,1475.3 2697.2,1538.2 "/>
<polygon class="st0" points="2515.5,1601.1 2479.1,1538.2 2588.1,1475.3 "/>
<polygon class="st0" points="2697.2,1538.2 2588.1,1475.3 2733.5,1475.3 "/>
<polygon class="st0" points="2479.1,1538.2 2442.8,1475.3 2588.1,1475.3 "/>
<polygon class="st0" points="2588.1,1475.3 2442.8,1475.3 2479.1,1412.3 "/>
<polygon class="st0" points="2733.5,1475.3 2588.1,1475.3 2697.2,1412.3 "/>
<polygon class="st0" points="2588.1,1475.3 2660.8,1349.4 2697.2,1412.3 "/>
<polygon class="st0" points="2588.1,1475.3 2479.1,1412.3 2515.5,1349.4 "/>
<polygon class="st0" points="2588.1,1475.3 2515.5,1349.4 2588.1,1349.4 "/>
<polygon class="st0" points="2588.1,1475.3 2588.1,1349.4 2660.8,1349.4 "/>
<polygon class="st0" points="2370.1,1727 2297.4,1727 2370.1,1601.1 "/>
<polygon class="st0" points="2442.8,1727 2370.1,1727 2370.1,1601.1 "/>
<polygon class="st0" points="2442.8,1727 2370.1,1601.1 2479.2,1664.1 "/>
<polygon class="st0" points="2297.4,1727 2261.1,1664.1 2370.1,1601.1 "/>
<polygon class="st0" points="2479.2,1664.1 2370.1,1601.1 2515.5,1601.1 "/>
<polygon class="st0" points="2261.1,1664.1 2224.8,1601.1 2370.1,1601.1 "/>
<polygon class="st0" points="2370.1,1601.1 2224.8,1601.1 2261.1,1538.2 "/>
<polygon class="st0" points="2515.5,1601.1 2370.1,1601.1 2479.2,1538.2 "/>
<polygon class="st0" points="2370.1,1601.1 2442.8,1475.3 2479.2,1538.2 "/>
<polygon class="st0" points="2370.1,1601.1 2261.1,1538.2 2297.4,1475.3 "/>
<polygon class="st0" points="2370.1,1601.1 2297.4,1475.3 2370.1,1475.3 "/>
<polygon class="st0" points="2370.1,1601.1 2370.1,1475.3 2442.8,1475.3 "/>
<polygon class="st0" points="2152.1,1852.9 2079.4,1852.9 2152.1,1727 "/>
<polygon class="st0" points="2224.8,1852.9 2152.1,1852.9 2152.1,1727 "/>
<polygon class="st0" points="2224.8,1852.9 2152.1,1727 2261.2,1790 "/>
<polygon class="st0" points="2079.4,1852.9 2043,1790 2152.1,1727 "/>
<polygon class="st0" points="2261.2,1790 2152.1,1727 2297.4,1727 "/>
<polygon class="st0" points="2043,1790 2006.8,1727 2152.1,1727 "/>
<polygon class="st0" points="2152.1,1727 2006.8,1727 2043,1664 "/>
<polygon class="st0" points="2297.4,1727 2152.1,1727 2261.2,1664 "/>
<polygon class="st0" points="2152.1,1727 2224.8,1601.1 2261.2,1664 "/>
<polygon class="st0" points="2152.1,1727 2043,1664 2079.4,1601.1 "/>
<polygon class="st0" points="2152.1,1727 2079.4,1601.1 2152.1,1601.1 "/>
<polygon class="st0" points="2152.1,1727 2152.1,1601.1 2224.8,1601.1 "/>
<polygon class="st0" points="1934.1,1852.9 1788.7,1852.9 1861.4,1727 "/>
<polygon class="st0" points="2079.4,1852.9 1934.1,1852.9 2006.8,1727 "/>
<polygon class="st0" points="1934.1,1852.9 1861.4,1727 2006.8,1727 "/>
<polygon class="st0" points="625.9,1852.9 335.2,1852.9 407.8,1726.9 "/>
<polygon class="st0" points="916.6,1852.9 625.9,1852.9 844,1726.9 "/>
<polygon class="st0" points="625.9,1852.9 771.3,1601.1 844,1726.9 "/>
<polygon class="st0" points="625.9,1852.9 407.8,1726.9 480.6,1601.1 "/>
<polygon class="st0" points="625.9,1852.9 480.6,1601.1 625.9,1601.1 "/>
<polygon class="st0" points="625.9,1852.9 625.9,1601.1 771.3,1601.1 "/>
<polygon class="st0" points="407.9,1852.9 335.2,1852.9 407.9,1727 "/>
<polygon class="st0" points="480.6,1852.9 407.9,1852.9 407.9,1727 "/>
<polygon class="st0" points="480.6,1852.9 407.9,1727 517,1790 "/>
<polygon class="st0" points="335.2,1852.9 298.8,1790 407.9,1727 "/>
<polygon class="st0" points="517,1790 407.9,1727 553.2,1727 "/>
<polygon class="st0" points="298.8,1790 262.5,1727 407.9,1727 "/>
<polygon class="st0" points="407.9,1727 262.5,1727 298.8,1664 "/>
<polygon class="st0" points="553.2,1727 407.9,1727 517,1664 "/>
<polygon class="st0" points="407.9,1727 480.6,1601.1 517,1664 "/>
<polygon class="st0" points="407.9,1727 298.8,1664 335.2,1601.1 "/>
<polygon class="st0" points="407.9,1727 335.2,1601.1 407.9,1601.1 "/>
<polygon class="st0" points="407.9,1727 407.9,1601.1 480.6,1601.1 "/>
<polygon class="st0" points="262.5,1727 117.2,1727 189.9,1601.1 "/>
<polygon class="st0" points="262.5,1727 189.9,1601.1 335.2,1601.1 "/>
<polygon class="st0" points="117.2,1727 44.5,1601.1 189.9,1601.1 "/>
<polygon class="st0" points="189.9,1601.1 44.5,1601.1 117.2,1475.3 "/>
<polygon class="st0" points="335.2,1601.1 189.9,1601.1 262.5,1475.3 "/>
<polygon class="st0" points="189.9,1601.1 117.2,1475.3 262.5,1475.3 "/>
<polygon class="st0" points="-28.1,1601.1 -100.8,1601.1 -28.1,1475.3 "/>
<polygon class="st0" points="44.5,1601.1 -28.1,1601.1 -28.1,1475.3 "/>
<polygon class="st0" points="44.5,1601.1 -28.1,1475.3 80.9,1538.2 "/>
<polygon class="st0" points="-100.8,1601.1 -137.2,1538.2 -28.1,1475.3 "/>
<polygon class="st0" points="80.9,1538.2 -28.1,1475.3 117.2,1475.3 "/>
<polygon class="st0" points="-137.2,1538.2 -173.5,1475.3 -28.1,1475.3 "/>
<polygon class="st0" points="-28.1,1475.3 -173.5,1475.3 -137.2,1412.3 "/>
<polygon class="st0" points="117.2,1475.3 -28.1,1475.3 80.9,1412.3 "/>
<polygon class="st0" points="-28.1,1475.3 44.5,1349.4 80.9,1412.3 "/>
<polygon class="st0" points="-28.1,1475.3 -137.2,1412.3 -100.8,1349.4 "/>
<polygon class="st0" points="-28.1,1475.3 -100.8,1349.4 -28.1,1349.4 "/>
<polygon class="st0" points="-28.1,1475.3 -28.1,1349.4 44.5,1349.4 "/>
<polygon class="st0" points="44.5,1349.4 -100.8,1349.4 -28.1,1223.5 "/>
<polygon class="st0" points="44.5,1349.4 -28.1,1223.5 117.2,1223.5 "/>
<polygon class="st0" points="-100.8,1349.4 -173.5,1223.5 -28.1,1223.5 "/>
<polygon class="st0" points="-28.1,1223.5 -173.5,1223.5 -100.8,1097.6 "/>
<polygon class="st0" points="117.2,1223.5 -28.1,1223.5 44.5,1097.6 "/>
<polygon class="st0" points="-28.1,1223.5 -100.8,1097.6 44.5,1097.6 "/>
<polygon class="st0" points="44.5,1097.6 -100.8,1097.6 -28.1,971.8 "/>
<polygon class="st0" points="44.5,1097.6 -28.1,971.8 117.2,971.8 "/>
<polygon class="st0" points="-100.8,1097.6 -173.5,971.8 -28.1,971.8 "/>
<polygon class="st0" points="-28.1,971.8 -173.5,971.8 -100.8,845.9 "/>
<polygon class="st0" points="117.2,971.8 -28.1,971.8 44.5,845.9 "/>
<polygon class="st0" points="-28.1,971.8 -100.8,845.9 44.5,845.9 "/>
<polygon class="st0" points="44.5,845.9 -100.8,845.9 -28.1,720 "/>
<polygon class="st0" points="44.5,845.9 -28.1,720 117.2,720 "/>
<polygon class="st0" points="-100.8,845.9 -173.5,720 -28.1,720 "/>
<polygon class="st0" points="-28.1,720 -173.5,720 -100.8,594.1 "/>
<polygon class="st0" points="117.2,720 -28.1,720 44.5,594.1 "/>
<polygon class="st0" points="-28.1,720 -100.8,594.1 44.5,594.1 "/>
<polygon class="st0" points="-28.1,594.1 -100.8,594.1 -28.1,468.2 "/>
<polygon class="st0" points="44.5,594.1 -28.1,594.1 -28.1,468.2 "/>
<polygon class="st0" points="44.5,594.1 -28.1,468.2 80.9,531.2 "/>
<polygon class="st0" points="-100.8,594.1 -137.2,531.2 -28.1,468.2 "/>
<polygon class="st0" points="80.9,531.2 -28.1,468.2 117.2,468.2 "/>
<polygon class="st0" points="-137.2,531.2 -173.5,468.2 -28.1,468.2 "/>
<polygon class="st0" points="-28.1,468.2 -173.5,468.2 -137.2,405.3 "/>
<polygon class="st0" points="117.2,468.2 -28.1,468.2 80.9,405.3 "/>
<polygon class="st0" points="-28.1,468.2 44.5,342.4 80.9,405.3 "/>
<polygon class="st0" points="-28.1,468.2 -137.2,405.3 -100.8,342.4 "/>
<polygon class="st0" points="-28.1,468.2 -100.8,342.4 -28.1,342.4 "/>
<polygon class="st0" points="-28.1,468.2 -28.1,342.4 44.5,342.4 "/>
<polygon class="st0" points="-28.1,342.4 -100.8,342.4 -28.1,216.5 "/>
<polygon class="st0" points="44.5,342.4 -28.1,342.4 -28.1,216.5 "/>
<polygon class="st0" points="44.5,342.4 -28.1,216.5 80.9,279.5 "/>
<polygon class="st0" points="-100.8,342.4 -137.2,279.5 -28.1,216.5 "/>
<polygon class="st0" points="80.9,279.5 -28.1,216.5 117.2,216.5 "/>
<polygon class="st0" points="-137.2,279.5 -173.5,216.5 -28.1,216.5 "/>
<polygon class="st0" points="-28.1,216.5 -173.5,216.5 -137.2,153.5 "/>
<polygon class="st0" points="117.2,216.5 -28.1,216.5 80.9,153.5 "/>
<polygon class="st0" points="-28.1,216.5 44.5,90.6 80.9,153.5 "/>
<polygon class="st0" points="-28.1,216.5 -137.2,153.5 -100.8,90.6 "/>
<polygon class="st0" points="-28.1,216.5 -100.8,90.6 -28.1,90.6 "/>
<polygon class="st0" points="-28.1,216.5 -28.1,90.6 44.5,90.6 "/>
<polygon class="st0" points="-28.1,90.6 -100.8,90.6 -28.1,-35.3 "/>
<polygon class="st0" points="44.5,90.6 -28.1,90.6 -28.1,-35.3 "/>
<polygon class="st0" points="44.5,90.6 -28.1,-35.3 80.9,27.7 "/>
<polygon class="st0" points="-100.8,90.6 -137.2,27.7 -28.1,-35.3 "/>
<polygon class="st0" points="80.9,27.7 -28.1,-35.3 117.2,-35.3 "/>
<polygon class="st0" points="-137.2,27.7 -173.5,-35.3 -28.1,-35.3 "/>
<polygon class="st0" points="-28.1,-35.3 -173.5,-35.3 -137.2,-98.2 "/>
<polygon class="st0" points="117.2,-35.3 -28.1,-35.3 80.9,-98.2 "/>
<polygon class="st0" points="-28.1,-35.3 44.5,-161.1 80.9,-98.2 "/>
<polygon class="st0" points="-28.1,-35.3 -137.2,-98.2 -100.8,-161.1 "/>
<polygon class="st0" points="-28.1,-35.3 -100.8,-161.1 -28.1,-161.1 "/>
<polygon class="st0" points="-28.1,-35.3 -28.1,-161.1 44.5,-161.1 "/>
<polygon class="st0" points="189.9,-35.3 117.2,-35.3 189.9,-161.1 "/>
<polygon class="st0" points="262.5,-35.3 189.9,-35.3 189.9,-161.1 "/>
<polygon class="st0" points="262.5,-35.3 189.9,-161.1 298.9,-98.2 "/>
<polygon class="st0" points="117.2,-35.3 80.8,-98.2 189.9,-161.1 "/>
<polygon class="st0" points="298.9,-98.2 189.9,-161.1 335.2,-161.1 "/>
<polygon class="st0" points="80.8,-98.2 44.5,-161.1 189.9,-161.1 "/>
<polygon class="st0" points="189.9,-161.1 44.5,-161.1 80.8,-224.1 "/>
<polygon class="st0" points="335.2,-161.1 189.9,-161.1 298.9,-224.1 "/>
<polygon class="st0" points="189.9,-161.1 262.5,-287 298.9,-224.1 "/>
<polygon class="st0" points="189.9,-161.1 80.8,-224.1 117.2,-287 "/>
<polygon class="st0" points="189.9,-161.1 117.2,-287 189.9,-287 "/>
<polygon class="st0" points="189.9,-161.1 189.9,-287 262.5,-287 "/>
<polygon class="st0" points="407.9,-161.1 335.2,-161.1 407.9,-287 "/>
<polygon class="st0" points="480.6,-161.1 407.9,-161.1 407.9,-287 "/>
<polygon class="st0" points="480.6,-161.1 407.9,-287 517,-224 "/>
<polygon class="st0" points="335.2,-161.1 298.8,-224 407.9,-287 "/>
<polygon class="st0" points="517,-224 407.9,-287 553.2,-287 "/>
<polygon class="st0" points="298.8,-224 262.5,-287 407.9,-287 "/>
<polygon class="st0" points="407.9,-287 262.5,-287 298.8,-350 "/>
<polygon class="st0" points="553.2,-287 407.9,-287 517,-350 "/>
<polygon class="st0" points="2660.8,-161.1 2515.5,-161.1 2588.1,-287 "/>
<polygon class="st0" points="2660.8,-161.1 2588.1,-287 2733.5,-287 "/>
<polygon class="st0" points="2515.5,-161.1 2442.8,-287 2588.1,-287 "/>
<polygon class="st0" points="2806.2,216.5 2588.1,216.5 2806.2,-161.1 "/>
<polygon class="st0" points="2588.1,216.5 2479,27.8 2806.2,-161.1 "/>
<polygon class="st0" points="2479,27.8 2370.1,-161.1 2806.2,-161.1 "/>
<polygon class="st0" points="2806.2,-161.1 2370.1,-161.1 2479,-350.1 "/>
<polygon class="st0" points="2733.5,216.5 2660.8,90.6 2806.2,90.6 "/>
<polygon class="st0" points="2806.2,90.6 2660.8,90.6 2733.5,-35.3 "/>
<polygon class="st0" points="2806.2,468.2 2733.5,468.2 2806.2,342.4 "/>
<polygon class="st0" points="2733.5,468.2 2697.1,405.3 2806.2,342.4 "/>
<polygon class="st0" points="2697.1,405.3 2660.8,342.4 2806.2,342.4 "/>
<polygon class="st0" points="2806.2,342.4 2660.8,342.4 2697.1,279.4 "/>
<polygon class="st0" points="2806.2,342.4 2697.1,279.4 2733.5,216.5 "/>
<polygon class="st0" points="2806.2,342.4 2733.5,216.5 2806.2,216.5 "/>
<polygon class="st0" points="2806.2,720 2733.5,720 2806.2,594.1 "/>
<polygon class="st0" points="2733.5,720 2697.1,657.1 2806.2,594.1 "/>
<polygon class="st0" points="2697.1,657.1 2660.8,594.1 2806.2,594.1 "/>
<polygon class="st0" points="2806.2,594.1 2660.8,594.1 2697.1,531.1 "/>
<polygon class="st0" points="2806.2,594.1 2697.1,531.1 2733.5,468.2 "/>
<polygon class="st0" points="2806.2,594.1 2733.5,468.2 2806.2,468.2 "/>
<polygon class="st0" points="2733.5,971.8 2660.8,845.9 2806.2,845.9 "/>
<polygon class="st0" points="2806.2,845.9 2660.8,845.9 2733.5,720 "/>
<polygon class="st0" points="2806.2,1223.5 2733.5,1223.5 2806.2,1097.6 "/>
<polygon class="st0" points="2733.5,1223.5 2697.1,1160.6 2806.2,1097.6 "/>
<polygon class="st0" points="2697.1,1160.6 2660.8,1097.6 2806.2,1097.6 "/>
<polygon class="st0" points="2806.2,1097.6 2660.8,1097.6 2697.1,1034.7 "/>
<polygon class="st0" points="2806.2,1097.6 2697.1,1034.7 2733.5,971.8 "/>
<polygon class="st0" points="2806.2,1097.6 2733.5,971.8 2806.2,971.8 "/>
<polygon class="st0" points="2806.2,1475.3 2733.5,1475.3 2806.2,1349.4 "/>
<polygon class="st0" points="2733.5,1475.3 2697.1,1412.4 2806.2,1349.4 "/>
<polygon class="st0" points="2697.1,1412.4 2660.8,1349.4 2806.2,1349.4 "/>
<polygon class="st0" points="2806.2,1349.4 2660.8,1349.4 2697.1,1286.4 "/>
<polygon class="st0" points="2806.2,1349.4 2697.1,1286.4 2733.5,1223.5 "/>
<polygon class="st0" points="2806.2,1349.4 2733.5,1223.5 2806.2,1223.5 "/>
<polygon class="st0" points="2806.2,1727 2733.5,1727 2806.2,1601.1 "/>
<polygon class="st0" points="2733.5,1727 2697.1,1664.1 2806.2,1601.1 "/>
<polygon class="st0" points="2697.1,1664.1 2660.8,1601.1 2806.2,1601.1 "/>
<polygon class="st0" points="2806.2,1601.1 2660.8,1601.1 2697.1,1538.2 "/>
<polygon class="st0" points="2806.2,1601.1 2697.1,1538.2 2733.5,1475.3 "/>
<polygon class="st0" points="2806.2,1601.1 2733.5,1475.3 2806.2,1475.3 "/>
<polygon class="st0" points="2588.1,1727 2297.4,1727 2442.8,1475.3 "/>
<polygon class="st0" points="2588.1,1727 2442.8,1475.3 2733.5,1475.3 "/>
<polygon class="st0" points="2370.1,1852.9 2224.8,1852.9 2297.4,1727 "/>
<polygon class="st0" points="2515.5,1852.9 2370.1,1852.9 2442.8,1727 "/>
<polygon class="st0" points="2370.1,1852.9 2297.4,1727 2442.8,1727 "/>
<polygon class="st0" points="189.9,1852.9 44.5,1852.9 117.2,1727 "/>
<polygon class="st0" points="335.2,1852.9 189.9,1852.9 262.5,1727 "/>
<polygon class="st0" points="189.9,1852.9 117.2,1727 262.5,1727 "/>
<polygon class="st0" points="44.5,1852.9 -100.8,1852.9 -28.1,1727 "/>
<polygon class="st0" points="44.5,1852.9 -28.1,1727 117.2,1727 "/>
<polygon class="st0" points="-100.8,1852.9 -173.5,1727 -28.1,1727 "/>
<polygon class="st0" points="-28.1,1727 -173.5,1727 -100.8,1601.1 "/>
<polygon class="st0" points="117.2,1727 -28.1,1727 44.5,1601.1 "/>
<polygon class="st0" points="-28.1,1727 -100.8,1601.1 44.5,1601.1 "/>
<polygon class="st0" points="-173.5,1727 -246.2,1601.1 -100.8,1601.1 "/>
<polygon class="st0" points="-100.8,1601.1 -246.2,1601.1 -173.5,1475.3 "/>
<polygon class="st0" points="-173.5,1475.3 -246.2,1349.4 -100.8,1349.4 "/>
<polygon class="st0" points="-100.8,1349.4 -246.2,1349.4 -173.5,1223.5 "/>
<polygon class="st0" points="-173.5,1223.5 -246.2,1097.6 -100.8,1097.6 "/>
<polygon class="st0" points="-100.8,1097.6 -246.2,1097.6 -173.5,971.8 "/>
<polygon class="st0" points="-173.5,971.8 -246.2,971.8 -246.2,845.9 "/>
<polygon class="st0" points="-173.5,971.8 -246.2,845.9 -137.1,908.9 "/>
<polygon class="st0" points="-137.1,908.9 -246.2,845.9 -100.8,845.9 "/>
<polygon class="st0" points="-100.8,845.9 -246.2,845.9 -137.1,782.9 "/>
<polygon class="st0" points="-246.2,845.9 -173.5,720 -137.1,782.9 "/>
<polygon class="st0" points="-246.2,845.9 -246.2,720 -173.5,720 "/>
<polygon class="st0" points="-28.1,971.8 -246.2,971.8 -246.2,594.1 "/>
<polygon class="st0" points="-28.1,971.8 -246.2,594.1 81,783.1 "/>
<polygon class="st0" points="81,783.1 -246.2,594.1 189.9,594.1 "/>
<polygon class="st0" points="189.9,594.1 -246.2,594.1 81,405.2 "/>
<polygon class="st0" points="-246.2,594.1 -28.1,216.5 81,405.2 "/>
<polygon class="st0" points="-246.2,594.1 -246.2,216.5 -28.1,216.5 "/>
<polygon class="st0" points="-173.5,468.2 -246.2,342.4 -100.8,342.4 "/>
<polygon class="st0" points="-100.8,342.4 -246.2,342.4 -173.5,216.5 "/>
<polygon class="st0" points="-173.5,216.5 -246.2,90.6 -100.8,90.6 "/>
<polygon class="st0" points="-100.8,90.6 -246.2,90.6 -173.5,-35.3 "/>
<polygon class="st0" points="-100.8,90.6 -246.2,-161.1 44.5,-161.1 "/>
<polygon class="st0" points="44.5,-161.1 -100.8,-161.1 -28.1,-287 "/>
<polygon class="st0" points="44.5,-161.1 -28.1,-287 117.2,-287 "/>
<polygon class="st0" points="-100.8,-161.1 -173.5,-287 -28.1,-287 "/>
<polygon class="st0" points="2806.2,1852.9 2660.8,1852.9 2733.5,1727 "/>
<polygon class="st0" points="-100.8,1852.9 -246.2,1852.9 -173.5,1727 "/>
</svg>
